%TF.GenerationSoftware,KiCad,Pcbnew,9.0.0*%
%TF.CreationDate,2025-03-15T03:11:36-06:00*%
%TF.ProjectId,electronic,656c6563-7472-46f6-9e69-632e6b696361,rev?*%
%TF.SameCoordinates,Original*%
%TF.FileFunction,Profile,NP*%
%FSLAX46Y46*%
G04 Gerber Fmt 4.6, Leading zero omitted, Abs format (unit mm)*
G04 Created by KiCad (PCBNEW 9.0.0) date 2025-03-15 03:11:36*
%MOMM*%
%LPD*%
G01*
G04 APERTURE LIST*
%ADD10C,0.100000*%
%ADD11C,0.150000*%
%ADD12C,0.300000*%
%ADD13C,0.400000*%
%TA.AperFunction,Profile*%
%ADD14C,0.050000*%
%TD*%
G04 APERTURE END LIST*
D10*
D11*
X90007200Y-104005800D02*
X198007200Y-104005800D01*
X198007200Y-136005800D01*
X90007200Y-136005800D01*
X90007200Y-104005800D01*
D10*
D11*
X10000000Y-10000000D02*
X200007200Y-10000000D01*
X200007200Y-138005800D01*
X10000000Y-138005800D01*
X10000000Y-10000000D01*
D10*
D11*
X12000000Y-12000000D02*
X198007200Y-12000000D01*
X198007200Y-136005800D01*
X12000000Y-136005800D01*
X12000000Y-12000000D01*
D10*
D11*
X60000000Y-12000000D02*
X60000000Y-10000000D01*
D10*
D11*
X110000000Y-12000000D02*
X110000000Y-10000000D01*
D10*
D11*
X160000000Y-12000000D02*
X160000000Y-10000000D01*
D10*
D11*
X36089160Y-11593604D02*
X35346303Y-11593604D01*
X35717731Y-11593604D02*
X35717731Y-10293604D01*
X35717731Y-10293604D02*
X35593922Y-10479319D01*
X35593922Y-10479319D02*
X35470112Y-10603128D01*
X35470112Y-10603128D02*
X35346303Y-10665033D01*
D10*
D11*
X85346303Y-10417414D02*
X85408207Y-10355509D01*
X85408207Y-10355509D02*
X85532017Y-10293604D01*
X85532017Y-10293604D02*
X85841541Y-10293604D01*
X85841541Y-10293604D02*
X85965350Y-10355509D01*
X85965350Y-10355509D02*
X86027255Y-10417414D01*
X86027255Y-10417414D02*
X86089160Y-10541223D01*
X86089160Y-10541223D02*
X86089160Y-10665033D01*
X86089160Y-10665033D02*
X86027255Y-10850747D01*
X86027255Y-10850747D02*
X85284398Y-11593604D01*
X85284398Y-11593604D02*
X86089160Y-11593604D01*
D10*
D11*
X135284398Y-10293604D02*
X136089160Y-10293604D01*
X136089160Y-10293604D02*
X135655826Y-10788842D01*
X135655826Y-10788842D02*
X135841541Y-10788842D01*
X135841541Y-10788842D02*
X135965350Y-10850747D01*
X135965350Y-10850747D02*
X136027255Y-10912652D01*
X136027255Y-10912652D02*
X136089160Y-11036461D01*
X136089160Y-11036461D02*
X136089160Y-11345985D01*
X136089160Y-11345985D02*
X136027255Y-11469795D01*
X136027255Y-11469795D02*
X135965350Y-11531700D01*
X135965350Y-11531700D02*
X135841541Y-11593604D01*
X135841541Y-11593604D02*
X135470112Y-11593604D01*
X135470112Y-11593604D02*
X135346303Y-11531700D01*
X135346303Y-11531700D02*
X135284398Y-11469795D01*
D10*
D11*
X185965350Y-10726938D02*
X185965350Y-11593604D01*
X185655826Y-10231700D02*
X185346303Y-11160271D01*
X185346303Y-11160271D02*
X186151064Y-11160271D01*
D10*
D11*
X60000000Y-136005800D02*
X60000000Y-138005800D01*
D10*
D11*
X110000000Y-136005800D02*
X110000000Y-138005800D01*
D10*
D11*
X160000000Y-136005800D02*
X160000000Y-138005800D01*
D10*
D11*
X36089160Y-137599404D02*
X35346303Y-137599404D01*
X35717731Y-137599404D02*
X35717731Y-136299404D01*
X35717731Y-136299404D02*
X35593922Y-136485119D01*
X35593922Y-136485119D02*
X35470112Y-136608928D01*
X35470112Y-136608928D02*
X35346303Y-136670833D01*
D10*
D11*
X85346303Y-136423214D02*
X85408207Y-136361309D01*
X85408207Y-136361309D02*
X85532017Y-136299404D01*
X85532017Y-136299404D02*
X85841541Y-136299404D01*
X85841541Y-136299404D02*
X85965350Y-136361309D01*
X85965350Y-136361309D02*
X86027255Y-136423214D01*
X86027255Y-136423214D02*
X86089160Y-136547023D01*
X86089160Y-136547023D02*
X86089160Y-136670833D01*
X86089160Y-136670833D02*
X86027255Y-136856547D01*
X86027255Y-136856547D02*
X85284398Y-137599404D01*
X85284398Y-137599404D02*
X86089160Y-137599404D01*
D10*
D11*
X135284398Y-136299404D02*
X136089160Y-136299404D01*
X136089160Y-136299404D02*
X135655826Y-136794642D01*
X135655826Y-136794642D02*
X135841541Y-136794642D01*
X135841541Y-136794642D02*
X135965350Y-136856547D01*
X135965350Y-136856547D02*
X136027255Y-136918452D01*
X136027255Y-136918452D02*
X136089160Y-137042261D01*
X136089160Y-137042261D02*
X136089160Y-137351785D01*
X136089160Y-137351785D02*
X136027255Y-137475595D01*
X136027255Y-137475595D02*
X135965350Y-137537500D01*
X135965350Y-137537500D02*
X135841541Y-137599404D01*
X135841541Y-137599404D02*
X135470112Y-137599404D01*
X135470112Y-137599404D02*
X135346303Y-137537500D01*
X135346303Y-137537500D02*
X135284398Y-137475595D01*
D10*
D11*
X185965350Y-136732738D02*
X185965350Y-137599404D01*
X185655826Y-136237500D02*
X185346303Y-137166071D01*
X185346303Y-137166071D02*
X186151064Y-137166071D01*
D10*
D11*
X10000000Y-60000000D02*
X12000000Y-60000000D01*
D10*
D11*
X10000000Y-110000000D02*
X12000000Y-110000000D01*
D10*
D11*
X10690476Y-35222176D02*
X11309523Y-35222176D01*
X10566666Y-35593604D02*
X10999999Y-34293604D01*
X10999999Y-34293604D02*
X11433333Y-35593604D01*
D10*
D11*
X11092857Y-84912652D02*
X11278571Y-84974557D01*
X11278571Y-84974557D02*
X11340476Y-85036461D01*
X11340476Y-85036461D02*
X11402380Y-85160271D01*
X11402380Y-85160271D02*
X11402380Y-85345985D01*
X11402380Y-85345985D02*
X11340476Y-85469795D01*
X11340476Y-85469795D02*
X11278571Y-85531700D01*
X11278571Y-85531700D02*
X11154761Y-85593604D01*
X11154761Y-85593604D02*
X10659523Y-85593604D01*
X10659523Y-85593604D02*
X10659523Y-84293604D01*
X10659523Y-84293604D02*
X11092857Y-84293604D01*
X11092857Y-84293604D02*
X11216666Y-84355509D01*
X11216666Y-84355509D02*
X11278571Y-84417414D01*
X11278571Y-84417414D02*
X11340476Y-84541223D01*
X11340476Y-84541223D02*
X11340476Y-84665033D01*
X11340476Y-84665033D02*
X11278571Y-84788842D01*
X11278571Y-84788842D02*
X11216666Y-84850747D01*
X11216666Y-84850747D02*
X11092857Y-84912652D01*
X11092857Y-84912652D02*
X10659523Y-84912652D01*
D10*
D11*
X11402380Y-135469795D02*
X11340476Y-135531700D01*
X11340476Y-135531700D02*
X11154761Y-135593604D01*
X11154761Y-135593604D02*
X11030952Y-135593604D01*
X11030952Y-135593604D02*
X10845238Y-135531700D01*
X10845238Y-135531700D02*
X10721428Y-135407890D01*
X10721428Y-135407890D02*
X10659523Y-135284080D01*
X10659523Y-135284080D02*
X10597619Y-135036461D01*
X10597619Y-135036461D02*
X10597619Y-134850747D01*
X10597619Y-134850747D02*
X10659523Y-134603128D01*
X10659523Y-134603128D02*
X10721428Y-134479319D01*
X10721428Y-134479319D02*
X10845238Y-134355509D01*
X10845238Y-134355509D02*
X11030952Y-134293604D01*
X11030952Y-134293604D02*
X11154761Y-134293604D01*
X11154761Y-134293604D02*
X11340476Y-134355509D01*
X11340476Y-134355509D02*
X11402380Y-134417414D01*
D10*
D11*
X200007200Y-60000000D02*
X198007200Y-60000000D01*
D10*
D11*
X200007200Y-110000000D02*
X198007200Y-110000000D01*
D10*
D11*
X198697676Y-35222176D02*
X199316723Y-35222176D01*
X198573866Y-35593604D02*
X199007199Y-34293604D01*
X199007199Y-34293604D02*
X199440533Y-35593604D01*
D10*
D11*
X199100057Y-84912652D02*
X199285771Y-84974557D01*
X199285771Y-84974557D02*
X199347676Y-85036461D01*
X199347676Y-85036461D02*
X199409580Y-85160271D01*
X199409580Y-85160271D02*
X199409580Y-85345985D01*
X199409580Y-85345985D02*
X199347676Y-85469795D01*
X199347676Y-85469795D02*
X199285771Y-85531700D01*
X199285771Y-85531700D02*
X199161961Y-85593604D01*
X199161961Y-85593604D02*
X198666723Y-85593604D01*
X198666723Y-85593604D02*
X198666723Y-84293604D01*
X198666723Y-84293604D02*
X199100057Y-84293604D01*
X199100057Y-84293604D02*
X199223866Y-84355509D01*
X199223866Y-84355509D02*
X199285771Y-84417414D01*
X199285771Y-84417414D02*
X199347676Y-84541223D01*
X199347676Y-84541223D02*
X199347676Y-84665033D01*
X199347676Y-84665033D02*
X199285771Y-84788842D01*
X199285771Y-84788842D02*
X199223866Y-84850747D01*
X199223866Y-84850747D02*
X199100057Y-84912652D01*
X199100057Y-84912652D02*
X198666723Y-84912652D01*
D10*
D11*
X199409580Y-135469795D02*
X199347676Y-135531700D01*
X199347676Y-135531700D02*
X199161961Y-135593604D01*
X199161961Y-135593604D02*
X199038152Y-135593604D01*
X199038152Y-135593604D02*
X198852438Y-135531700D01*
X198852438Y-135531700D02*
X198728628Y-135407890D01*
X198728628Y-135407890D02*
X198666723Y-135284080D01*
X198666723Y-135284080D02*
X198604819Y-135036461D01*
X198604819Y-135036461D02*
X198604819Y-134850747D01*
X198604819Y-134850747D02*
X198666723Y-134603128D01*
X198666723Y-134603128D02*
X198728628Y-134479319D01*
X198728628Y-134479319D02*
X198852438Y-134355509D01*
X198852438Y-134355509D02*
X199038152Y-134293604D01*
X199038152Y-134293604D02*
X199161961Y-134293604D01*
X199161961Y-134293604D02*
X199347676Y-134355509D01*
X199347676Y-134355509D02*
X199409580Y-134417414D01*
D10*
D11*
X113463026Y-131791928D02*
X113463026Y-130291928D01*
X113463026Y-130291928D02*
X113820169Y-130291928D01*
X113820169Y-130291928D02*
X114034455Y-130363357D01*
X114034455Y-130363357D02*
X114177312Y-130506214D01*
X114177312Y-130506214D02*
X114248741Y-130649071D01*
X114248741Y-130649071D02*
X114320169Y-130934785D01*
X114320169Y-130934785D02*
X114320169Y-131149071D01*
X114320169Y-131149071D02*
X114248741Y-131434785D01*
X114248741Y-131434785D02*
X114177312Y-131577642D01*
X114177312Y-131577642D02*
X114034455Y-131720500D01*
X114034455Y-131720500D02*
X113820169Y-131791928D01*
X113820169Y-131791928D02*
X113463026Y-131791928D01*
X115605884Y-131791928D02*
X115605884Y-131006214D01*
X115605884Y-131006214D02*
X115534455Y-130863357D01*
X115534455Y-130863357D02*
X115391598Y-130791928D01*
X115391598Y-130791928D02*
X115105884Y-130791928D01*
X115105884Y-130791928D02*
X114963026Y-130863357D01*
X115605884Y-131720500D02*
X115463026Y-131791928D01*
X115463026Y-131791928D02*
X115105884Y-131791928D01*
X115105884Y-131791928D02*
X114963026Y-131720500D01*
X114963026Y-131720500D02*
X114891598Y-131577642D01*
X114891598Y-131577642D02*
X114891598Y-131434785D01*
X114891598Y-131434785D02*
X114963026Y-131291928D01*
X114963026Y-131291928D02*
X115105884Y-131220500D01*
X115105884Y-131220500D02*
X115463026Y-131220500D01*
X115463026Y-131220500D02*
X115605884Y-131149071D01*
X116105884Y-130791928D02*
X116677312Y-130791928D01*
X116320169Y-130291928D02*
X116320169Y-131577642D01*
X116320169Y-131577642D02*
X116391598Y-131720500D01*
X116391598Y-131720500D02*
X116534455Y-131791928D01*
X116534455Y-131791928D02*
X116677312Y-131791928D01*
X117748741Y-131720500D02*
X117605884Y-131791928D01*
X117605884Y-131791928D02*
X117320170Y-131791928D01*
X117320170Y-131791928D02*
X117177312Y-131720500D01*
X117177312Y-131720500D02*
X117105884Y-131577642D01*
X117105884Y-131577642D02*
X117105884Y-131006214D01*
X117105884Y-131006214D02*
X117177312Y-130863357D01*
X117177312Y-130863357D02*
X117320170Y-130791928D01*
X117320170Y-130791928D02*
X117605884Y-130791928D01*
X117605884Y-130791928D02*
X117748741Y-130863357D01*
X117748741Y-130863357D02*
X117820170Y-131006214D01*
X117820170Y-131006214D02*
X117820170Y-131149071D01*
X117820170Y-131149071D02*
X117105884Y-131291928D01*
X118463026Y-131649071D02*
X118534455Y-131720500D01*
X118534455Y-131720500D02*
X118463026Y-131791928D01*
X118463026Y-131791928D02*
X118391598Y-131720500D01*
X118391598Y-131720500D02*
X118463026Y-131649071D01*
X118463026Y-131649071D02*
X118463026Y-131791928D01*
X118463026Y-130863357D02*
X118534455Y-130934785D01*
X118534455Y-130934785D02*
X118463026Y-131006214D01*
X118463026Y-131006214D02*
X118391598Y-130934785D01*
X118391598Y-130934785D02*
X118463026Y-130863357D01*
X118463026Y-130863357D02*
X118463026Y-131006214D01*
X121105884Y-131791928D02*
X120248741Y-131791928D01*
X120677312Y-131791928D02*
X120677312Y-130291928D01*
X120677312Y-130291928D02*
X120534455Y-130506214D01*
X120534455Y-130506214D02*
X120391598Y-130649071D01*
X120391598Y-130649071D02*
X120248741Y-130720500D01*
X122391598Y-130791928D02*
X122391598Y-131791928D01*
X122034455Y-130220500D02*
X121677312Y-131291928D01*
X121677312Y-131291928D02*
X122605883Y-131291928D01*
X124248740Y-130220500D02*
X122963026Y-132149071D01*
X124605883Y-130291928D02*
X125534455Y-130291928D01*
X125534455Y-130291928D02*
X125034455Y-130863357D01*
X125034455Y-130863357D02*
X125248740Y-130863357D01*
X125248740Y-130863357D02*
X125391598Y-130934785D01*
X125391598Y-130934785D02*
X125463026Y-131006214D01*
X125463026Y-131006214D02*
X125534455Y-131149071D01*
X125534455Y-131149071D02*
X125534455Y-131506214D01*
X125534455Y-131506214D02*
X125463026Y-131649071D01*
X125463026Y-131649071D02*
X125391598Y-131720500D01*
X125391598Y-131720500D02*
X125248740Y-131791928D01*
X125248740Y-131791928D02*
X124820169Y-131791928D01*
X124820169Y-131791928D02*
X124677312Y-131720500D01*
X124677312Y-131720500D02*
X124605883Y-131649071D01*
X127248740Y-130220500D02*
X125963026Y-132149071D01*
X127677312Y-130434785D02*
X127748740Y-130363357D01*
X127748740Y-130363357D02*
X127891598Y-130291928D01*
X127891598Y-130291928D02*
X128248740Y-130291928D01*
X128248740Y-130291928D02*
X128391598Y-130363357D01*
X128391598Y-130363357D02*
X128463026Y-130434785D01*
X128463026Y-130434785D02*
X128534455Y-130577642D01*
X128534455Y-130577642D02*
X128534455Y-130720500D01*
X128534455Y-130720500D02*
X128463026Y-130934785D01*
X128463026Y-130934785D02*
X127605883Y-131791928D01*
X127605883Y-131791928D02*
X128534455Y-131791928D01*
X129891597Y-130291928D02*
X129177311Y-130291928D01*
X129177311Y-130291928D02*
X129105883Y-131006214D01*
X129105883Y-131006214D02*
X129177311Y-130934785D01*
X129177311Y-130934785D02*
X129320169Y-130863357D01*
X129320169Y-130863357D02*
X129677311Y-130863357D01*
X129677311Y-130863357D02*
X129820169Y-130934785D01*
X129820169Y-130934785D02*
X129891597Y-131006214D01*
X129891597Y-131006214D02*
X129963026Y-131149071D01*
X129963026Y-131149071D02*
X129963026Y-131506214D01*
X129963026Y-131506214D02*
X129891597Y-131649071D01*
X129891597Y-131649071D02*
X129820169Y-131720500D01*
X129820169Y-131720500D02*
X129677311Y-131791928D01*
X129677311Y-131791928D02*
X129320169Y-131791928D01*
X129320169Y-131791928D02*
X129177311Y-131720500D01*
X129177311Y-131720500D02*
X129105883Y-131649071D01*
D10*
D11*
X90007200Y-132505800D02*
X198007200Y-132505800D01*
D10*
D11*
X91463026Y-134591928D02*
X91463026Y-133091928D01*
X92320169Y-134591928D02*
X91677312Y-133734785D01*
X92320169Y-133091928D02*
X91463026Y-133949071D01*
X92963026Y-134591928D02*
X92963026Y-133591928D01*
X92963026Y-133091928D02*
X92891598Y-133163357D01*
X92891598Y-133163357D02*
X92963026Y-133234785D01*
X92963026Y-133234785D02*
X93034455Y-133163357D01*
X93034455Y-133163357D02*
X92963026Y-133091928D01*
X92963026Y-133091928D02*
X92963026Y-133234785D01*
X94534455Y-134449071D02*
X94463027Y-134520500D01*
X94463027Y-134520500D02*
X94248741Y-134591928D01*
X94248741Y-134591928D02*
X94105884Y-134591928D01*
X94105884Y-134591928D02*
X93891598Y-134520500D01*
X93891598Y-134520500D02*
X93748741Y-134377642D01*
X93748741Y-134377642D02*
X93677312Y-134234785D01*
X93677312Y-134234785D02*
X93605884Y-133949071D01*
X93605884Y-133949071D02*
X93605884Y-133734785D01*
X93605884Y-133734785D02*
X93677312Y-133449071D01*
X93677312Y-133449071D02*
X93748741Y-133306214D01*
X93748741Y-133306214D02*
X93891598Y-133163357D01*
X93891598Y-133163357D02*
X94105884Y-133091928D01*
X94105884Y-133091928D02*
X94248741Y-133091928D01*
X94248741Y-133091928D02*
X94463027Y-133163357D01*
X94463027Y-133163357D02*
X94534455Y-133234785D01*
X95820170Y-134591928D02*
X95820170Y-133806214D01*
X95820170Y-133806214D02*
X95748741Y-133663357D01*
X95748741Y-133663357D02*
X95605884Y-133591928D01*
X95605884Y-133591928D02*
X95320170Y-133591928D01*
X95320170Y-133591928D02*
X95177312Y-133663357D01*
X95820170Y-134520500D02*
X95677312Y-134591928D01*
X95677312Y-134591928D02*
X95320170Y-134591928D01*
X95320170Y-134591928D02*
X95177312Y-134520500D01*
X95177312Y-134520500D02*
X95105884Y-134377642D01*
X95105884Y-134377642D02*
X95105884Y-134234785D01*
X95105884Y-134234785D02*
X95177312Y-134091928D01*
X95177312Y-134091928D02*
X95320170Y-134020500D01*
X95320170Y-134020500D02*
X95677312Y-134020500D01*
X95677312Y-134020500D02*
X95820170Y-133949071D01*
X97177313Y-134591928D02*
X97177313Y-133091928D01*
X97177313Y-134520500D02*
X97034455Y-134591928D01*
X97034455Y-134591928D02*
X96748741Y-134591928D01*
X96748741Y-134591928D02*
X96605884Y-134520500D01*
X96605884Y-134520500D02*
X96534455Y-134449071D01*
X96534455Y-134449071D02*
X96463027Y-134306214D01*
X96463027Y-134306214D02*
X96463027Y-133877642D01*
X96463027Y-133877642D02*
X96534455Y-133734785D01*
X96534455Y-133734785D02*
X96605884Y-133663357D01*
X96605884Y-133663357D02*
X96748741Y-133591928D01*
X96748741Y-133591928D02*
X97034455Y-133591928D01*
X97034455Y-133591928D02*
X97177313Y-133663357D01*
X99034455Y-133806214D02*
X99534455Y-133806214D01*
X99748741Y-134591928D02*
X99034455Y-134591928D01*
X99034455Y-134591928D02*
X99034455Y-133091928D01*
X99034455Y-133091928D02*
X99748741Y-133091928D01*
X100391598Y-134449071D02*
X100463027Y-134520500D01*
X100463027Y-134520500D02*
X100391598Y-134591928D01*
X100391598Y-134591928D02*
X100320170Y-134520500D01*
X100320170Y-134520500D02*
X100391598Y-134449071D01*
X100391598Y-134449071D02*
X100391598Y-134591928D01*
X101105884Y-134591928D02*
X101105884Y-133091928D01*
X101105884Y-133091928D02*
X101463027Y-133091928D01*
X101463027Y-133091928D02*
X101677313Y-133163357D01*
X101677313Y-133163357D02*
X101820170Y-133306214D01*
X101820170Y-133306214D02*
X101891599Y-133449071D01*
X101891599Y-133449071D02*
X101963027Y-133734785D01*
X101963027Y-133734785D02*
X101963027Y-133949071D01*
X101963027Y-133949071D02*
X101891599Y-134234785D01*
X101891599Y-134234785D02*
X101820170Y-134377642D01*
X101820170Y-134377642D02*
X101677313Y-134520500D01*
X101677313Y-134520500D02*
X101463027Y-134591928D01*
X101463027Y-134591928D02*
X101105884Y-134591928D01*
X102605884Y-134449071D02*
X102677313Y-134520500D01*
X102677313Y-134520500D02*
X102605884Y-134591928D01*
X102605884Y-134591928D02*
X102534456Y-134520500D01*
X102534456Y-134520500D02*
X102605884Y-134449071D01*
X102605884Y-134449071D02*
X102605884Y-134591928D01*
X103248742Y-134163357D02*
X103963028Y-134163357D01*
X103105885Y-134591928D02*
X103605885Y-133091928D01*
X103605885Y-133091928D02*
X104105885Y-134591928D01*
X104605884Y-134449071D02*
X104677313Y-134520500D01*
X104677313Y-134520500D02*
X104605884Y-134591928D01*
X104605884Y-134591928D02*
X104534456Y-134520500D01*
X104534456Y-134520500D02*
X104605884Y-134449071D01*
X104605884Y-134449071D02*
X104605884Y-134591928D01*
X106534456Y-134591928D02*
X106820170Y-134591928D01*
X106820170Y-134591928D02*
X106963027Y-134520500D01*
X106963027Y-134520500D02*
X107034456Y-134449071D01*
X107034456Y-134449071D02*
X107177313Y-134234785D01*
X107177313Y-134234785D02*
X107248742Y-133949071D01*
X107248742Y-133949071D02*
X107248742Y-133377642D01*
X107248742Y-133377642D02*
X107177313Y-133234785D01*
X107177313Y-133234785D02*
X107105885Y-133163357D01*
X107105885Y-133163357D02*
X106963027Y-133091928D01*
X106963027Y-133091928D02*
X106677313Y-133091928D01*
X106677313Y-133091928D02*
X106534456Y-133163357D01*
X106534456Y-133163357D02*
X106463027Y-133234785D01*
X106463027Y-133234785D02*
X106391599Y-133377642D01*
X106391599Y-133377642D02*
X106391599Y-133734785D01*
X106391599Y-133734785D02*
X106463027Y-133877642D01*
X106463027Y-133877642D02*
X106534456Y-133949071D01*
X106534456Y-133949071D02*
X106677313Y-134020500D01*
X106677313Y-134020500D02*
X106963027Y-134020500D01*
X106963027Y-134020500D02*
X107105885Y-133949071D01*
X107105885Y-133949071D02*
X107177313Y-133877642D01*
X107177313Y-133877642D02*
X107248742Y-133734785D01*
X107891598Y-134449071D02*
X107963027Y-134520500D01*
X107963027Y-134520500D02*
X107891598Y-134591928D01*
X107891598Y-134591928D02*
X107820170Y-134520500D01*
X107820170Y-134520500D02*
X107891598Y-134449071D01*
X107891598Y-134449071D02*
X107891598Y-134591928D01*
X108891599Y-133091928D02*
X109034456Y-133091928D01*
X109034456Y-133091928D02*
X109177313Y-133163357D01*
X109177313Y-133163357D02*
X109248742Y-133234785D01*
X109248742Y-133234785D02*
X109320170Y-133377642D01*
X109320170Y-133377642D02*
X109391599Y-133663357D01*
X109391599Y-133663357D02*
X109391599Y-134020500D01*
X109391599Y-134020500D02*
X109320170Y-134306214D01*
X109320170Y-134306214D02*
X109248742Y-134449071D01*
X109248742Y-134449071D02*
X109177313Y-134520500D01*
X109177313Y-134520500D02*
X109034456Y-134591928D01*
X109034456Y-134591928D02*
X108891599Y-134591928D01*
X108891599Y-134591928D02*
X108748742Y-134520500D01*
X108748742Y-134520500D02*
X108677313Y-134449071D01*
X108677313Y-134449071D02*
X108605884Y-134306214D01*
X108605884Y-134306214D02*
X108534456Y-134020500D01*
X108534456Y-134020500D02*
X108534456Y-133663357D01*
X108534456Y-133663357D02*
X108605884Y-133377642D01*
X108605884Y-133377642D02*
X108677313Y-133234785D01*
X108677313Y-133234785D02*
X108748742Y-133163357D01*
X108748742Y-133163357D02*
X108891599Y-133091928D01*
X110034455Y-134449071D02*
X110105884Y-134520500D01*
X110105884Y-134520500D02*
X110034455Y-134591928D01*
X110034455Y-134591928D02*
X109963027Y-134520500D01*
X109963027Y-134520500D02*
X110034455Y-134449071D01*
X110034455Y-134449071D02*
X110034455Y-134591928D01*
X111034456Y-133091928D02*
X111177313Y-133091928D01*
X111177313Y-133091928D02*
X111320170Y-133163357D01*
X111320170Y-133163357D02*
X111391599Y-133234785D01*
X111391599Y-133234785D02*
X111463027Y-133377642D01*
X111463027Y-133377642D02*
X111534456Y-133663357D01*
X111534456Y-133663357D02*
X111534456Y-134020500D01*
X111534456Y-134020500D02*
X111463027Y-134306214D01*
X111463027Y-134306214D02*
X111391599Y-134449071D01*
X111391599Y-134449071D02*
X111320170Y-134520500D01*
X111320170Y-134520500D02*
X111177313Y-134591928D01*
X111177313Y-134591928D02*
X111034456Y-134591928D01*
X111034456Y-134591928D02*
X110891599Y-134520500D01*
X110891599Y-134520500D02*
X110820170Y-134449071D01*
X110820170Y-134449071D02*
X110748741Y-134306214D01*
X110748741Y-134306214D02*
X110677313Y-134020500D01*
X110677313Y-134020500D02*
X110677313Y-133663357D01*
X110677313Y-133663357D02*
X110748741Y-133377642D01*
X110748741Y-133377642D02*
X110820170Y-133234785D01*
X110820170Y-133234785D02*
X110891599Y-133163357D01*
X110891599Y-133163357D02*
X111034456Y-133091928D01*
D10*
D11*
X90007200Y-129505800D02*
X198007200Y-129505800D01*
D10*
D12*
X177418853Y-131784128D02*
X176918853Y-131069842D01*
X176561710Y-131784128D02*
X176561710Y-130284128D01*
X176561710Y-130284128D02*
X177133139Y-130284128D01*
X177133139Y-130284128D02*
X177275996Y-130355557D01*
X177275996Y-130355557D02*
X177347425Y-130426985D01*
X177347425Y-130426985D02*
X177418853Y-130569842D01*
X177418853Y-130569842D02*
X177418853Y-130784128D01*
X177418853Y-130784128D02*
X177347425Y-130926985D01*
X177347425Y-130926985D02*
X177275996Y-130998414D01*
X177275996Y-130998414D02*
X177133139Y-131069842D01*
X177133139Y-131069842D02*
X176561710Y-131069842D01*
X178633139Y-131712700D02*
X178490282Y-131784128D01*
X178490282Y-131784128D02*
X178204568Y-131784128D01*
X178204568Y-131784128D02*
X178061710Y-131712700D01*
X178061710Y-131712700D02*
X177990282Y-131569842D01*
X177990282Y-131569842D02*
X177990282Y-130998414D01*
X177990282Y-130998414D02*
X178061710Y-130855557D01*
X178061710Y-130855557D02*
X178204568Y-130784128D01*
X178204568Y-130784128D02*
X178490282Y-130784128D01*
X178490282Y-130784128D02*
X178633139Y-130855557D01*
X178633139Y-130855557D02*
X178704568Y-130998414D01*
X178704568Y-130998414D02*
X178704568Y-131141271D01*
X178704568Y-131141271D02*
X177990282Y-131284128D01*
X179204567Y-130784128D02*
X179561710Y-131784128D01*
X179561710Y-131784128D02*
X179918853Y-130784128D01*
X180490281Y-131641271D02*
X180561710Y-131712700D01*
X180561710Y-131712700D02*
X180490281Y-131784128D01*
X180490281Y-131784128D02*
X180418853Y-131712700D01*
X180418853Y-131712700D02*
X180490281Y-131641271D01*
X180490281Y-131641271D02*
X180490281Y-131784128D01*
X180490281Y-130855557D02*
X180561710Y-130926985D01*
X180561710Y-130926985D02*
X180490281Y-130998414D01*
X180490281Y-130998414D02*
X180418853Y-130926985D01*
X180418853Y-130926985D02*
X180490281Y-130855557D01*
X180490281Y-130855557D02*
X180490281Y-130998414D01*
D10*
D11*
X91391598Y-131720500D02*
X91605884Y-131791928D01*
X91605884Y-131791928D02*
X91963026Y-131791928D01*
X91963026Y-131791928D02*
X92105884Y-131720500D01*
X92105884Y-131720500D02*
X92177312Y-131649071D01*
X92177312Y-131649071D02*
X92248741Y-131506214D01*
X92248741Y-131506214D02*
X92248741Y-131363357D01*
X92248741Y-131363357D02*
X92177312Y-131220500D01*
X92177312Y-131220500D02*
X92105884Y-131149071D01*
X92105884Y-131149071D02*
X91963026Y-131077642D01*
X91963026Y-131077642D02*
X91677312Y-131006214D01*
X91677312Y-131006214D02*
X91534455Y-130934785D01*
X91534455Y-130934785D02*
X91463026Y-130863357D01*
X91463026Y-130863357D02*
X91391598Y-130720500D01*
X91391598Y-130720500D02*
X91391598Y-130577642D01*
X91391598Y-130577642D02*
X91463026Y-130434785D01*
X91463026Y-130434785D02*
X91534455Y-130363357D01*
X91534455Y-130363357D02*
X91677312Y-130291928D01*
X91677312Y-130291928D02*
X92034455Y-130291928D01*
X92034455Y-130291928D02*
X92248741Y-130363357D01*
X92891597Y-131791928D02*
X92891597Y-130791928D01*
X92891597Y-130291928D02*
X92820169Y-130363357D01*
X92820169Y-130363357D02*
X92891597Y-130434785D01*
X92891597Y-130434785D02*
X92963026Y-130363357D01*
X92963026Y-130363357D02*
X92891597Y-130291928D01*
X92891597Y-130291928D02*
X92891597Y-130434785D01*
X93463026Y-130791928D02*
X94248741Y-130791928D01*
X94248741Y-130791928D02*
X93463026Y-131791928D01*
X93463026Y-131791928D02*
X94248741Y-131791928D01*
X95391598Y-131720500D02*
X95248741Y-131791928D01*
X95248741Y-131791928D02*
X94963027Y-131791928D01*
X94963027Y-131791928D02*
X94820169Y-131720500D01*
X94820169Y-131720500D02*
X94748741Y-131577642D01*
X94748741Y-131577642D02*
X94748741Y-131006214D01*
X94748741Y-131006214D02*
X94820169Y-130863357D01*
X94820169Y-130863357D02*
X94963027Y-130791928D01*
X94963027Y-130791928D02*
X95248741Y-130791928D01*
X95248741Y-130791928D02*
X95391598Y-130863357D01*
X95391598Y-130863357D02*
X95463027Y-131006214D01*
X95463027Y-131006214D02*
X95463027Y-131149071D01*
X95463027Y-131149071D02*
X94748741Y-131291928D01*
X96105883Y-131649071D02*
X96177312Y-131720500D01*
X96177312Y-131720500D02*
X96105883Y-131791928D01*
X96105883Y-131791928D02*
X96034455Y-131720500D01*
X96034455Y-131720500D02*
X96105883Y-131649071D01*
X96105883Y-131649071D02*
X96105883Y-131791928D01*
X96105883Y-130863357D02*
X96177312Y-130934785D01*
X96177312Y-130934785D02*
X96105883Y-131006214D01*
X96105883Y-131006214D02*
X96034455Y-130934785D01*
X96034455Y-130934785D02*
X96105883Y-130863357D01*
X96105883Y-130863357D02*
X96105883Y-131006214D01*
X97891598Y-131363357D02*
X98605884Y-131363357D01*
X97748741Y-131791928D02*
X98248741Y-130291928D01*
X98248741Y-130291928D02*
X98748741Y-131791928D01*
X99963026Y-130291928D02*
X99248740Y-130291928D01*
X99248740Y-130291928D02*
X99177312Y-131006214D01*
X99177312Y-131006214D02*
X99248740Y-130934785D01*
X99248740Y-130934785D02*
X99391598Y-130863357D01*
X99391598Y-130863357D02*
X99748740Y-130863357D01*
X99748740Y-130863357D02*
X99891598Y-130934785D01*
X99891598Y-130934785D02*
X99963026Y-131006214D01*
X99963026Y-131006214D02*
X100034455Y-131149071D01*
X100034455Y-131149071D02*
X100034455Y-131506214D01*
X100034455Y-131506214D02*
X99963026Y-131649071D01*
X99963026Y-131649071D02*
X99891598Y-131720500D01*
X99891598Y-131720500D02*
X99748740Y-131791928D01*
X99748740Y-131791928D02*
X99391598Y-131791928D01*
X99391598Y-131791928D02*
X99248740Y-131720500D01*
X99248740Y-131720500D02*
X99177312Y-131649071D01*
D10*
D11*
X176463026Y-134591928D02*
X176463026Y-133091928D01*
X177820170Y-134591928D02*
X177820170Y-133091928D01*
X177820170Y-134520500D02*
X177677312Y-134591928D01*
X177677312Y-134591928D02*
X177391598Y-134591928D01*
X177391598Y-134591928D02*
X177248741Y-134520500D01*
X177248741Y-134520500D02*
X177177312Y-134449071D01*
X177177312Y-134449071D02*
X177105884Y-134306214D01*
X177105884Y-134306214D02*
X177105884Y-133877642D01*
X177105884Y-133877642D02*
X177177312Y-133734785D01*
X177177312Y-133734785D02*
X177248741Y-133663357D01*
X177248741Y-133663357D02*
X177391598Y-133591928D01*
X177391598Y-133591928D02*
X177677312Y-133591928D01*
X177677312Y-133591928D02*
X177820170Y-133663357D01*
X178534455Y-134449071D02*
X178605884Y-134520500D01*
X178605884Y-134520500D02*
X178534455Y-134591928D01*
X178534455Y-134591928D02*
X178463027Y-134520500D01*
X178463027Y-134520500D02*
X178534455Y-134449071D01*
X178534455Y-134449071D02*
X178534455Y-134591928D01*
X178534455Y-133663357D02*
X178605884Y-133734785D01*
X178605884Y-133734785D02*
X178534455Y-133806214D01*
X178534455Y-133806214D02*
X178463027Y-133734785D01*
X178463027Y-133734785D02*
X178534455Y-133663357D01*
X178534455Y-133663357D02*
X178534455Y-133806214D01*
X180463027Y-134591928D02*
X180748741Y-134591928D01*
X180748741Y-134591928D02*
X180891598Y-134520500D01*
X180891598Y-134520500D02*
X180963027Y-134449071D01*
X180963027Y-134449071D02*
X181105884Y-134234785D01*
X181105884Y-134234785D02*
X181177313Y-133949071D01*
X181177313Y-133949071D02*
X181177313Y-133377642D01*
X181177313Y-133377642D02*
X181105884Y-133234785D01*
X181105884Y-133234785D02*
X181034456Y-133163357D01*
X181034456Y-133163357D02*
X180891598Y-133091928D01*
X180891598Y-133091928D02*
X180605884Y-133091928D01*
X180605884Y-133091928D02*
X180463027Y-133163357D01*
X180463027Y-133163357D02*
X180391598Y-133234785D01*
X180391598Y-133234785D02*
X180320170Y-133377642D01*
X180320170Y-133377642D02*
X180320170Y-133734785D01*
X180320170Y-133734785D02*
X180391598Y-133877642D01*
X180391598Y-133877642D02*
X180463027Y-133949071D01*
X180463027Y-133949071D02*
X180605884Y-134020500D01*
X180605884Y-134020500D02*
X180891598Y-134020500D01*
X180891598Y-134020500D02*
X181034456Y-133949071D01*
X181034456Y-133949071D02*
X181105884Y-133877642D01*
X181105884Y-133877642D02*
X181177313Y-133734785D01*
X182891598Y-133020500D02*
X181605884Y-134949071D01*
X183463027Y-134591928D02*
X183748741Y-134591928D01*
X183748741Y-134591928D02*
X183891598Y-134520500D01*
X183891598Y-134520500D02*
X183963027Y-134449071D01*
X183963027Y-134449071D02*
X184105884Y-134234785D01*
X184105884Y-134234785D02*
X184177313Y-133949071D01*
X184177313Y-133949071D02*
X184177313Y-133377642D01*
X184177313Y-133377642D02*
X184105884Y-133234785D01*
X184105884Y-133234785D02*
X184034456Y-133163357D01*
X184034456Y-133163357D02*
X183891598Y-133091928D01*
X183891598Y-133091928D02*
X183605884Y-133091928D01*
X183605884Y-133091928D02*
X183463027Y-133163357D01*
X183463027Y-133163357D02*
X183391598Y-133234785D01*
X183391598Y-133234785D02*
X183320170Y-133377642D01*
X183320170Y-133377642D02*
X183320170Y-133734785D01*
X183320170Y-133734785D02*
X183391598Y-133877642D01*
X183391598Y-133877642D02*
X183463027Y-133949071D01*
X183463027Y-133949071D02*
X183605884Y-134020500D01*
X183605884Y-134020500D02*
X183891598Y-134020500D01*
X183891598Y-134020500D02*
X184034456Y-133949071D01*
X184034456Y-133949071D02*
X184105884Y-133877642D01*
X184105884Y-133877642D02*
X184177313Y-133734785D01*
D10*
D11*
X90007200Y-125505800D02*
X198007200Y-125505800D01*
D10*
D13*
X91698928Y-126210238D02*
X92841785Y-126210238D01*
X92020357Y-128210238D02*
X92270357Y-126210238D01*
X93258452Y-128210238D02*
X93425119Y-126876904D01*
X93508452Y-126210238D02*
X93401309Y-126305476D01*
X93401309Y-126305476D02*
X93484643Y-126400714D01*
X93484643Y-126400714D02*
X93591786Y-126305476D01*
X93591786Y-126305476D02*
X93508452Y-126210238D01*
X93508452Y-126210238D02*
X93484643Y-126400714D01*
X94091786Y-126876904D02*
X94853690Y-126876904D01*
X94460833Y-126210238D02*
X94246548Y-127924523D01*
X94246548Y-127924523D02*
X94317976Y-128115000D01*
X94317976Y-128115000D02*
X94496548Y-128210238D01*
X94496548Y-128210238D02*
X94687024Y-128210238D01*
X95639405Y-128210238D02*
X95460833Y-128115000D01*
X95460833Y-128115000D02*
X95389405Y-127924523D01*
X95389405Y-127924523D02*
X95603690Y-126210238D01*
X97175119Y-128115000D02*
X96972738Y-128210238D01*
X96972738Y-128210238D02*
X96591785Y-128210238D01*
X96591785Y-128210238D02*
X96413214Y-128115000D01*
X96413214Y-128115000D02*
X96341785Y-127924523D01*
X96341785Y-127924523D02*
X96437024Y-127162619D01*
X96437024Y-127162619D02*
X96556071Y-126972142D01*
X96556071Y-126972142D02*
X96758452Y-126876904D01*
X96758452Y-126876904D02*
X97139404Y-126876904D01*
X97139404Y-126876904D02*
X97317976Y-126972142D01*
X97317976Y-126972142D02*
X97389404Y-127162619D01*
X97389404Y-127162619D02*
X97365595Y-127353095D01*
X97365595Y-127353095D02*
X96389404Y-127543571D01*
X98139405Y-128019761D02*
X98222738Y-128115000D01*
X98222738Y-128115000D02*
X98115595Y-128210238D01*
X98115595Y-128210238D02*
X98032262Y-128115000D01*
X98032262Y-128115000D02*
X98139405Y-128019761D01*
X98139405Y-128019761D02*
X98115595Y-128210238D01*
X98270357Y-126972142D02*
X98353690Y-127067380D01*
X98353690Y-127067380D02*
X98246548Y-127162619D01*
X98246548Y-127162619D02*
X98163214Y-127067380D01*
X98163214Y-127067380D02*
X98270357Y-126972142D01*
X98270357Y-126972142D02*
X98246548Y-127162619D01*
X100591786Y-128210238D02*
X100841786Y-126210238D01*
X100841786Y-126210238D02*
X101603691Y-126210238D01*
X101603691Y-126210238D02*
X101782262Y-126305476D01*
X101782262Y-126305476D02*
X101865596Y-126400714D01*
X101865596Y-126400714D02*
X101937024Y-126591190D01*
X101937024Y-126591190D02*
X101901310Y-126876904D01*
X101901310Y-126876904D02*
X101782262Y-127067380D01*
X101782262Y-127067380D02*
X101675120Y-127162619D01*
X101675120Y-127162619D02*
X101472739Y-127257857D01*
X101472739Y-127257857D02*
X100710834Y-127257857D01*
X103758453Y-128019761D02*
X103651310Y-128115000D01*
X103651310Y-128115000D02*
X103353691Y-128210238D01*
X103353691Y-128210238D02*
X103163215Y-128210238D01*
X103163215Y-128210238D02*
X102889405Y-128115000D01*
X102889405Y-128115000D02*
X102722739Y-127924523D01*
X102722739Y-127924523D02*
X102651310Y-127734047D01*
X102651310Y-127734047D02*
X102603691Y-127353095D01*
X102603691Y-127353095D02*
X102639405Y-127067380D01*
X102639405Y-127067380D02*
X102782262Y-126686428D01*
X102782262Y-126686428D02*
X102901310Y-126495952D01*
X102901310Y-126495952D02*
X103115596Y-126305476D01*
X103115596Y-126305476D02*
X103413215Y-126210238D01*
X103413215Y-126210238D02*
X103603691Y-126210238D01*
X103603691Y-126210238D02*
X103877501Y-126305476D01*
X103877501Y-126305476D02*
X103960834Y-126400714D01*
X105389405Y-127162619D02*
X105663215Y-127257857D01*
X105663215Y-127257857D02*
X105746548Y-127353095D01*
X105746548Y-127353095D02*
X105817977Y-127543571D01*
X105817977Y-127543571D02*
X105782262Y-127829285D01*
X105782262Y-127829285D02*
X105663215Y-128019761D01*
X105663215Y-128019761D02*
X105556072Y-128115000D01*
X105556072Y-128115000D02*
X105353691Y-128210238D01*
X105353691Y-128210238D02*
X104591786Y-128210238D01*
X104591786Y-128210238D02*
X104841786Y-126210238D01*
X104841786Y-126210238D02*
X105508453Y-126210238D01*
X105508453Y-126210238D02*
X105687024Y-126305476D01*
X105687024Y-126305476D02*
X105770358Y-126400714D01*
X105770358Y-126400714D02*
X105841786Y-126591190D01*
X105841786Y-126591190D02*
X105817977Y-126781666D01*
X105817977Y-126781666D02*
X105698929Y-126972142D01*
X105698929Y-126972142D02*
X105591786Y-127067380D01*
X105591786Y-127067380D02*
X105389405Y-127162619D01*
X105389405Y-127162619D02*
X104722739Y-127162619D01*
X108972739Y-128210238D02*
X109222739Y-126210238D01*
X108984644Y-128115000D02*
X108782263Y-128210238D01*
X108782263Y-128210238D02*
X108401311Y-128210238D01*
X108401311Y-128210238D02*
X108222739Y-128115000D01*
X108222739Y-128115000D02*
X108139406Y-128019761D01*
X108139406Y-128019761D02*
X108067977Y-127829285D01*
X108067977Y-127829285D02*
X108139406Y-127257857D01*
X108139406Y-127257857D02*
X108258453Y-127067380D01*
X108258453Y-127067380D02*
X108365596Y-126972142D01*
X108365596Y-126972142D02*
X108567977Y-126876904D01*
X108567977Y-126876904D02*
X108948930Y-126876904D01*
X108948930Y-126876904D02*
X109127501Y-126972142D01*
X110698930Y-128115000D02*
X110496549Y-128210238D01*
X110496549Y-128210238D02*
X110115596Y-128210238D01*
X110115596Y-128210238D02*
X109937025Y-128115000D01*
X109937025Y-128115000D02*
X109865596Y-127924523D01*
X109865596Y-127924523D02*
X109960835Y-127162619D01*
X109960835Y-127162619D02*
X110079882Y-126972142D01*
X110079882Y-126972142D02*
X110282263Y-126876904D01*
X110282263Y-126876904D02*
X110663215Y-126876904D01*
X110663215Y-126876904D02*
X110841787Y-126972142D01*
X110841787Y-126972142D02*
X110913215Y-127162619D01*
X110913215Y-127162619D02*
X110889406Y-127353095D01*
X110889406Y-127353095D02*
X109913215Y-127543571D01*
X113448931Y-128210238D02*
X113270359Y-128115000D01*
X113270359Y-128115000D02*
X113198931Y-127924523D01*
X113198931Y-127924523D02*
X113413216Y-126210238D01*
X115067978Y-128210238D02*
X115198930Y-127162619D01*
X115198930Y-127162619D02*
X115127502Y-126972142D01*
X115127502Y-126972142D02*
X114948930Y-126876904D01*
X114948930Y-126876904D02*
X114567978Y-126876904D01*
X114567978Y-126876904D02*
X114365597Y-126972142D01*
X115079883Y-128115000D02*
X114877502Y-128210238D01*
X114877502Y-128210238D02*
X114401311Y-128210238D01*
X114401311Y-128210238D02*
X114222740Y-128115000D01*
X114222740Y-128115000D02*
X114151311Y-127924523D01*
X114151311Y-127924523D02*
X114175121Y-127734047D01*
X114175121Y-127734047D02*
X114294169Y-127543571D01*
X114294169Y-127543571D02*
X114496550Y-127448333D01*
X114496550Y-127448333D02*
X114972740Y-127448333D01*
X114972740Y-127448333D02*
X115175121Y-127353095D01*
X117710836Y-126876904D02*
X117460836Y-128876904D01*
X117698931Y-126972142D02*
X117901312Y-126876904D01*
X117901312Y-126876904D02*
X118282264Y-126876904D01*
X118282264Y-126876904D02*
X118460836Y-126972142D01*
X118460836Y-126972142D02*
X118544169Y-127067380D01*
X118544169Y-127067380D02*
X118615598Y-127257857D01*
X118615598Y-127257857D02*
X118544169Y-127829285D01*
X118544169Y-127829285D02*
X118425122Y-128019761D01*
X118425122Y-128019761D02*
X118317979Y-128115000D01*
X118317979Y-128115000D02*
X118115598Y-128210238D01*
X118115598Y-128210238D02*
X117734645Y-128210238D01*
X117734645Y-128210238D02*
X117556074Y-128115000D01*
X119639408Y-128210238D02*
X119460836Y-128115000D01*
X119460836Y-128115000D02*
X119389408Y-127924523D01*
X119389408Y-127924523D02*
X119603693Y-126210238D01*
X121258455Y-128210238D02*
X121389407Y-127162619D01*
X121389407Y-127162619D02*
X121317979Y-126972142D01*
X121317979Y-126972142D02*
X121139407Y-126876904D01*
X121139407Y-126876904D02*
X120758455Y-126876904D01*
X120758455Y-126876904D02*
X120556074Y-126972142D01*
X121270360Y-128115000D02*
X121067979Y-128210238D01*
X121067979Y-128210238D02*
X120591788Y-128210238D01*
X120591788Y-128210238D02*
X120413217Y-128115000D01*
X120413217Y-128115000D02*
X120341788Y-127924523D01*
X120341788Y-127924523D02*
X120365598Y-127734047D01*
X120365598Y-127734047D02*
X120484646Y-127543571D01*
X120484646Y-127543571D02*
X120687027Y-127448333D01*
X120687027Y-127448333D02*
X121163217Y-127448333D01*
X121163217Y-127448333D02*
X121365598Y-127353095D01*
X122091789Y-126876904D02*
X122853693Y-126876904D01*
X122460836Y-126210238D02*
X122246551Y-127924523D01*
X122246551Y-127924523D02*
X122317979Y-128115000D01*
X122317979Y-128115000D02*
X122496551Y-128210238D01*
X122496551Y-128210238D02*
X122687027Y-128210238D01*
X124210836Y-128210238D02*
X124341788Y-127162619D01*
X124341788Y-127162619D02*
X124270360Y-126972142D01*
X124270360Y-126972142D02*
X124091788Y-126876904D01*
X124091788Y-126876904D02*
X123710836Y-126876904D01*
X123710836Y-126876904D02*
X123508455Y-126972142D01*
X124222741Y-128115000D02*
X124020360Y-128210238D01*
X124020360Y-128210238D02*
X123544169Y-128210238D01*
X123544169Y-128210238D02*
X123365598Y-128115000D01*
X123365598Y-128115000D02*
X123294169Y-127924523D01*
X123294169Y-127924523D02*
X123317979Y-127734047D01*
X123317979Y-127734047D02*
X123437027Y-127543571D01*
X123437027Y-127543571D02*
X123639408Y-127448333D01*
X123639408Y-127448333D02*
X124115598Y-127448333D01*
X124115598Y-127448333D02*
X124317979Y-127353095D01*
X125044170Y-126876904D02*
X125806074Y-126876904D01*
X125163217Y-128210238D02*
X125377503Y-126495952D01*
X125377503Y-126495952D02*
X125496551Y-126305476D01*
X125496551Y-126305476D02*
X125698932Y-126210238D01*
X125698932Y-126210238D02*
X125889408Y-126210238D01*
X126591789Y-128210238D02*
X126413217Y-128115000D01*
X126413217Y-128115000D02*
X126329884Y-128019761D01*
X126329884Y-128019761D02*
X126258455Y-127829285D01*
X126258455Y-127829285D02*
X126329884Y-127257857D01*
X126329884Y-127257857D02*
X126448931Y-127067380D01*
X126448931Y-127067380D02*
X126556074Y-126972142D01*
X126556074Y-126972142D02*
X126758455Y-126876904D01*
X126758455Y-126876904D02*
X127044169Y-126876904D01*
X127044169Y-126876904D02*
X127222741Y-126972142D01*
X127222741Y-126972142D02*
X127306074Y-127067380D01*
X127306074Y-127067380D02*
X127377503Y-127257857D01*
X127377503Y-127257857D02*
X127306074Y-127829285D01*
X127306074Y-127829285D02*
X127187027Y-128019761D01*
X127187027Y-128019761D02*
X127079884Y-128115000D01*
X127079884Y-128115000D02*
X126877503Y-128210238D01*
X126877503Y-128210238D02*
X126591789Y-128210238D01*
X128115598Y-128210238D02*
X128282265Y-126876904D01*
X128234646Y-127257857D02*
X128353693Y-127067380D01*
X128353693Y-127067380D02*
X128460836Y-126972142D01*
X128460836Y-126972142D02*
X128663217Y-126876904D01*
X128663217Y-126876904D02*
X128853693Y-126876904D01*
X129353693Y-128210238D02*
X129520360Y-126876904D01*
X129496550Y-127067380D02*
X129603693Y-126972142D01*
X129603693Y-126972142D02*
X129806074Y-126876904D01*
X129806074Y-126876904D02*
X130091788Y-126876904D01*
X130091788Y-126876904D02*
X130270360Y-126972142D01*
X130270360Y-126972142D02*
X130341788Y-127162619D01*
X130341788Y-127162619D02*
X130210836Y-128210238D01*
X130341788Y-127162619D02*
X130460836Y-126972142D01*
X130460836Y-126972142D02*
X130663217Y-126876904D01*
X130663217Y-126876904D02*
X130948931Y-126876904D01*
X130948931Y-126876904D02*
X131127503Y-126972142D01*
X131127503Y-126972142D02*
X131198931Y-127162619D01*
X131198931Y-127162619D02*
X131067979Y-128210238D01*
X132877503Y-128210238D02*
X133008455Y-127162619D01*
X133008455Y-127162619D02*
X132937027Y-126972142D01*
X132937027Y-126972142D02*
X132758455Y-126876904D01*
X132758455Y-126876904D02*
X132377503Y-126876904D01*
X132377503Y-126876904D02*
X132175122Y-126972142D01*
X132889408Y-128115000D02*
X132687027Y-128210238D01*
X132687027Y-128210238D02*
X132210836Y-128210238D01*
X132210836Y-128210238D02*
X132032265Y-128115000D01*
X132032265Y-128115000D02*
X131960836Y-127924523D01*
X131960836Y-127924523D02*
X131984646Y-127734047D01*
X131984646Y-127734047D02*
X132103694Y-127543571D01*
X132103694Y-127543571D02*
X132306075Y-127448333D01*
X132306075Y-127448333D02*
X132782265Y-127448333D01*
X132782265Y-127448333D02*
X132984646Y-127353095D01*
D10*
D11*
X91963026Y-123606214D02*
X91463026Y-123606214D01*
X91463026Y-124391928D02*
X91463026Y-122891928D01*
X91463026Y-122891928D02*
X92177312Y-122891928D01*
X92748740Y-124391928D02*
X92748740Y-123391928D01*
X92748740Y-122891928D02*
X92677312Y-122963357D01*
X92677312Y-122963357D02*
X92748740Y-123034785D01*
X92748740Y-123034785D02*
X92820169Y-122963357D01*
X92820169Y-122963357D02*
X92748740Y-122891928D01*
X92748740Y-122891928D02*
X92748740Y-123034785D01*
X93677312Y-124391928D02*
X93534455Y-124320500D01*
X93534455Y-124320500D02*
X93463026Y-124177642D01*
X93463026Y-124177642D02*
X93463026Y-122891928D01*
X94820169Y-124320500D02*
X94677312Y-124391928D01*
X94677312Y-124391928D02*
X94391598Y-124391928D01*
X94391598Y-124391928D02*
X94248740Y-124320500D01*
X94248740Y-124320500D02*
X94177312Y-124177642D01*
X94177312Y-124177642D02*
X94177312Y-123606214D01*
X94177312Y-123606214D02*
X94248740Y-123463357D01*
X94248740Y-123463357D02*
X94391598Y-123391928D01*
X94391598Y-123391928D02*
X94677312Y-123391928D01*
X94677312Y-123391928D02*
X94820169Y-123463357D01*
X94820169Y-123463357D02*
X94891598Y-123606214D01*
X94891598Y-123606214D02*
X94891598Y-123749071D01*
X94891598Y-123749071D02*
X94177312Y-123891928D01*
X95534454Y-124249071D02*
X95605883Y-124320500D01*
X95605883Y-124320500D02*
X95534454Y-124391928D01*
X95534454Y-124391928D02*
X95463026Y-124320500D01*
X95463026Y-124320500D02*
X95534454Y-124249071D01*
X95534454Y-124249071D02*
X95534454Y-124391928D01*
X95534454Y-123463357D02*
X95605883Y-123534785D01*
X95605883Y-123534785D02*
X95534454Y-123606214D01*
X95534454Y-123606214D02*
X95463026Y-123534785D01*
X95463026Y-123534785D02*
X95534454Y-123463357D01*
X95534454Y-123463357D02*
X95534454Y-123606214D01*
X97963026Y-124320500D02*
X97820169Y-124391928D01*
X97820169Y-124391928D02*
X97534455Y-124391928D01*
X97534455Y-124391928D02*
X97391597Y-124320500D01*
X97391597Y-124320500D02*
X97320169Y-124177642D01*
X97320169Y-124177642D02*
X97320169Y-123606214D01*
X97320169Y-123606214D02*
X97391597Y-123463357D01*
X97391597Y-123463357D02*
X97534455Y-123391928D01*
X97534455Y-123391928D02*
X97820169Y-123391928D01*
X97820169Y-123391928D02*
X97963026Y-123463357D01*
X97963026Y-123463357D02*
X98034455Y-123606214D01*
X98034455Y-123606214D02*
X98034455Y-123749071D01*
X98034455Y-123749071D02*
X97320169Y-123891928D01*
X98891597Y-124391928D02*
X98748740Y-124320500D01*
X98748740Y-124320500D02*
X98677311Y-124177642D01*
X98677311Y-124177642D02*
X98677311Y-122891928D01*
X100034454Y-124320500D02*
X99891597Y-124391928D01*
X99891597Y-124391928D02*
X99605883Y-124391928D01*
X99605883Y-124391928D02*
X99463025Y-124320500D01*
X99463025Y-124320500D02*
X99391597Y-124177642D01*
X99391597Y-124177642D02*
X99391597Y-123606214D01*
X99391597Y-123606214D02*
X99463025Y-123463357D01*
X99463025Y-123463357D02*
X99605883Y-123391928D01*
X99605883Y-123391928D02*
X99891597Y-123391928D01*
X99891597Y-123391928D02*
X100034454Y-123463357D01*
X100034454Y-123463357D02*
X100105883Y-123606214D01*
X100105883Y-123606214D02*
X100105883Y-123749071D01*
X100105883Y-123749071D02*
X99391597Y-123891928D01*
X101391597Y-124320500D02*
X101248739Y-124391928D01*
X101248739Y-124391928D02*
X100963025Y-124391928D01*
X100963025Y-124391928D02*
X100820168Y-124320500D01*
X100820168Y-124320500D02*
X100748739Y-124249071D01*
X100748739Y-124249071D02*
X100677311Y-124106214D01*
X100677311Y-124106214D02*
X100677311Y-123677642D01*
X100677311Y-123677642D02*
X100748739Y-123534785D01*
X100748739Y-123534785D02*
X100820168Y-123463357D01*
X100820168Y-123463357D02*
X100963025Y-123391928D01*
X100963025Y-123391928D02*
X101248739Y-123391928D01*
X101248739Y-123391928D02*
X101391597Y-123463357D01*
X101820168Y-123391928D02*
X102391596Y-123391928D01*
X102034453Y-122891928D02*
X102034453Y-124177642D01*
X102034453Y-124177642D02*
X102105882Y-124320500D01*
X102105882Y-124320500D02*
X102248739Y-124391928D01*
X102248739Y-124391928D02*
X102391596Y-124391928D01*
X102891596Y-124391928D02*
X102891596Y-123391928D01*
X102891596Y-123677642D02*
X102963025Y-123534785D01*
X102963025Y-123534785D02*
X103034454Y-123463357D01*
X103034454Y-123463357D02*
X103177311Y-123391928D01*
X103177311Y-123391928D02*
X103320168Y-123391928D01*
X104034453Y-124391928D02*
X103891596Y-124320500D01*
X103891596Y-124320500D02*
X103820167Y-124249071D01*
X103820167Y-124249071D02*
X103748739Y-124106214D01*
X103748739Y-124106214D02*
X103748739Y-123677642D01*
X103748739Y-123677642D02*
X103820167Y-123534785D01*
X103820167Y-123534785D02*
X103891596Y-123463357D01*
X103891596Y-123463357D02*
X104034453Y-123391928D01*
X104034453Y-123391928D02*
X104248739Y-123391928D01*
X104248739Y-123391928D02*
X104391596Y-123463357D01*
X104391596Y-123463357D02*
X104463025Y-123534785D01*
X104463025Y-123534785D02*
X104534453Y-123677642D01*
X104534453Y-123677642D02*
X104534453Y-124106214D01*
X104534453Y-124106214D02*
X104463025Y-124249071D01*
X104463025Y-124249071D02*
X104391596Y-124320500D01*
X104391596Y-124320500D02*
X104248739Y-124391928D01*
X104248739Y-124391928D02*
X104034453Y-124391928D01*
X105177310Y-123391928D02*
X105177310Y-124391928D01*
X105177310Y-123534785D02*
X105248739Y-123463357D01*
X105248739Y-123463357D02*
X105391596Y-123391928D01*
X105391596Y-123391928D02*
X105605882Y-123391928D01*
X105605882Y-123391928D02*
X105748739Y-123463357D01*
X105748739Y-123463357D02*
X105820168Y-123606214D01*
X105820168Y-123606214D02*
X105820168Y-124391928D01*
X106534453Y-124391928D02*
X106534453Y-123391928D01*
X106534453Y-122891928D02*
X106463025Y-122963357D01*
X106463025Y-122963357D02*
X106534453Y-123034785D01*
X106534453Y-123034785D02*
X106605882Y-122963357D01*
X106605882Y-122963357D02*
X106534453Y-122891928D01*
X106534453Y-122891928D02*
X106534453Y-123034785D01*
X107891597Y-124320500D02*
X107748739Y-124391928D01*
X107748739Y-124391928D02*
X107463025Y-124391928D01*
X107463025Y-124391928D02*
X107320168Y-124320500D01*
X107320168Y-124320500D02*
X107248739Y-124249071D01*
X107248739Y-124249071D02*
X107177311Y-124106214D01*
X107177311Y-124106214D02*
X107177311Y-123677642D01*
X107177311Y-123677642D02*
X107248739Y-123534785D01*
X107248739Y-123534785D02*
X107320168Y-123463357D01*
X107320168Y-123463357D02*
X107463025Y-123391928D01*
X107463025Y-123391928D02*
X107748739Y-123391928D01*
X107748739Y-123391928D02*
X107891597Y-123463357D01*
X108534453Y-124249071D02*
X108605882Y-124320500D01*
X108605882Y-124320500D02*
X108534453Y-124391928D01*
X108534453Y-124391928D02*
X108463025Y-124320500D01*
X108463025Y-124320500D02*
X108534453Y-124249071D01*
X108534453Y-124249071D02*
X108534453Y-124391928D01*
X109248739Y-124391928D02*
X109248739Y-122891928D01*
X109391597Y-123820500D02*
X109820168Y-124391928D01*
X109820168Y-123391928D02*
X109248739Y-123963357D01*
X110463025Y-124391928D02*
X110463025Y-123391928D01*
X110463025Y-122891928D02*
X110391597Y-122963357D01*
X110391597Y-122963357D02*
X110463025Y-123034785D01*
X110463025Y-123034785D02*
X110534454Y-122963357D01*
X110534454Y-122963357D02*
X110463025Y-122891928D01*
X110463025Y-122891928D02*
X110463025Y-123034785D01*
X111820169Y-124320500D02*
X111677311Y-124391928D01*
X111677311Y-124391928D02*
X111391597Y-124391928D01*
X111391597Y-124391928D02*
X111248740Y-124320500D01*
X111248740Y-124320500D02*
X111177311Y-124249071D01*
X111177311Y-124249071D02*
X111105883Y-124106214D01*
X111105883Y-124106214D02*
X111105883Y-123677642D01*
X111105883Y-123677642D02*
X111177311Y-123534785D01*
X111177311Y-123534785D02*
X111248740Y-123463357D01*
X111248740Y-123463357D02*
X111391597Y-123391928D01*
X111391597Y-123391928D02*
X111677311Y-123391928D01*
X111677311Y-123391928D02*
X111820169Y-123463357D01*
X113105883Y-124391928D02*
X113105883Y-123606214D01*
X113105883Y-123606214D02*
X113034454Y-123463357D01*
X113034454Y-123463357D02*
X112891597Y-123391928D01*
X112891597Y-123391928D02*
X112605883Y-123391928D01*
X112605883Y-123391928D02*
X112463025Y-123463357D01*
X113105883Y-124320500D02*
X112963025Y-124391928D01*
X112963025Y-124391928D02*
X112605883Y-124391928D01*
X112605883Y-124391928D02*
X112463025Y-124320500D01*
X112463025Y-124320500D02*
X112391597Y-124177642D01*
X112391597Y-124177642D02*
X112391597Y-124034785D01*
X112391597Y-124034785D02*
X112463025Y-123891928D01*
X112463025Y-123891928D02*
X112605883Y-123820500D01*
X112605883Y-123820500D02*
X112963025Y-123820500D01*
X112963025Y-123820500D02*
X113105883Y-123749071D01*
X114463026Y-124391928D02*
X114463026Y-122891928D01*
X114463026Y-124320500D02*
X114320168Y-124391928D01*
X114320168Y-124391928D02*
X114034454Y-124391928D01*
X114034454Y-124391928D02*
X113891597Y-124320500D01*
X113891597Y-124320500D02*
X113820168Y-124249071D01*
X113820168Y-124249071D02*
X113748740Y-124106214D01*
X113748740Y-124106214D02*
X113748740Y-123677642D01*
X113748740Y-123677642D02*
X113820168Y-123534785D01*
X113820168Y-123534785D02*
X113891597Y-123463357D01*
X113891597Y-123463357D02*
X114034454Y-123391928D01*
X114034454Y-123391928D02*
X114320168Y-123391928D01*
X114320168Y-123391928D02*
X114463026Y-123463357D01*
X114820169Y-124534785D02*
X115963026Y-124534785D01*
X116320168Y-123391928D02*
X116320168Y-124891928D01*
X116320168Y-123463357D02*
X116463026Y-123391928D01*
X116463026Y-123391928D02*
X116748740Y-123391928D01*
X116748740Y-123391928D02*
X116891597Y-123463357D01*
X116891597Y-123463357D02*
X116963026Y-123534785D01*
X116963026Y-123534785D02*
X117034454Y-123677642D01*
X117034454Y-123677642D02*
X117034454Y-124106214D01*
X117034454Y-124106214D02*
X116963026Y-124249071D01*
X116963026Y-124249071D02*
X116891597Y-124320500D01*
X116891597Y-124320500D02*
X116748740Y-124391928D01*
X116748740Y-124391928D02*
X116463026Y-124391928D01*
X116463026Y-124391928D02*
X116320168Y-124320500D01*
X118320169Y-124320500D02*
X118177311Y-124391928D01*
X118177311Y-124391928D02*
X117891597Y-124391928D01*
X117891597Y-124391928D02*
X117748740Y-124320500D01*
X117748740Y-124320500D02*
X117677311Y-124249071D01*
X117677311Y-124249071D02*
X117605883Y-124106214D01*
X117605883Y-124106214D02*
X117605883Y-123677642D01*
X117605883Y-123677642D02*
X117677311Y-123534785D01*
X117677311Y-123534785D02*
X117748740Y-123463357D01*
X117748740Y-123463357D02*
X117891597Y-123391928D01*
X117891597Y-123391928D02*
X118177311Y-123391928D01*
X118177311Y-123391928D02*
X118320169Y-123463357D01*
X118963025Y-124391928D02*
X118963025Y-122891928D01*
X118963025Y-123463357D02*
X119105883Y-123391928D01*
X119105883Y-123391928D02*
X119391597Y-123391928D01*
X119391597Y-123391928D02*
X119534454Y-123463357D01*
X119534454Y-123463357D02*
X119605883Y-123534785D01*
X119605883Y-123534785D02*
X119677311Y-123677642D01*
X119677311Y-123677642D02*
X119677311Y-124106214D01*
X119677311Y-124106214D02*
X119605883Y-124249071D01*
X119605883Y-124249071D02*
X119534454Y-124320500D01*
X119534454Y-124320500D02*
X119391597Y-124391928D01*
X119391597Y-124391928D02*
X119105883Y-124391928D01*
X119105883Y-124391928D02*
X118963025Y-124320500D01*
D10*
D11*
X90007200Y-119505800D02*
X198007200Y-119505800D01*
D10*
D11*
X91391598Y-121620500D02*
X91605884Y-121691928D01*
X91605884Y-121691928D02*
X91963026Y-121691928D01*
X91963026Y-121691928D02*
X92105884Y-121620500D01*
X92105884Y-121620500D02*
X92177312Y-121549071D01*
X92177312Y-121549071D02*
X92248741Y-121406214D01*
X92248741Y-121406214D02*
X92248741Y-121263357D01*
X92248741Y-121263357D02*
X92177312Y-121120500D01*
X92177312Y-121120500D02*
X92105884Y-121049071D01*
X92105884Y-121049071D02*
X91963026Y-120977642D01*
X91963026Y-120977642D02*
X91677312Y-120906214D01*
X91677312Y-120906214D02*
X91534455Y-120834785D01*
X91534455Y-120834785D02*
X91463026Y-120763357D01*
X91463026Y-120763357D02*
X91391598Y-120620500D01*
X91391598Y-120620500D02*
X91391598Y-120477642D01*
X91391598Y-120477642D02*
X91463026Y-120334785D01*
X91463026Y-120334785D02*
X91534455Y-120263357D01*
X91534455Y-120263357D02*
X91677312Y-120191928D01*
X91677312Y-120191928D02*
X92034455Y-120191928D01*
X92034455Y-120191928D02*
X92248741Y-120263357D01*
X92891597Y-121691928D02*
X92891597Y-120191928D01*
X93534455Y-121691928D02*
X93534455Y-120906214D01*
X93534455Y-120906214D02*
X93463026Y-120763357D01*
X93463026Y-120763357D02*
X93320169Y-120691928D01*
X93320169Y-120691928D02*
X93105883Y-120691928D01*
X93105883Y-120691928D02*
X92963026Y-120763357D01*
X92963026Y-120763357D02*
X92891597Y-120834785D01*
X94820169Y-121620500D02*
X94677312Y-121691928D01*
X94677312Y-121691928D02*
X94391598Y-121691928D01*
X94391598Y-121691928D02*
X94248740Y-121620500D01*
X94248740Y-121620500D02*
X94177312Y-121477642D01*
X94177312Y-121477642D02*
X94177312Y-120906214D01*
X94177312Y-120906214D02*
X94248740Y-120763357D01*
X94248740Y-120763357D02*
X94391598Y-120691928D01*
X94391598Y-120691928D02*
X94677312Y-120691928D01*
X94677312Y-120691928D02*
X94820169Y-120763357D01*
X94820169Y-120763357D02*
X94891598Y-120906214D01*
X94891598Y-120906214D02*
X94891598Y-121049071D01*
X94891598Y-121049071D02*
X94177312Y-121191928D01*
X96105883Y-121620500D02*
X95963026Y-121691928D01*
X95963026Y-121691928D02*
X95677312Y-121691928D01*
X95677312Y-121691928D02*
X95534454Y-121620500D01*
X95534454Y-121620500D02*
X95463026Y-121477642D01*
X95463026Y-121477642D02*
X95463026Y-120906214D01*
X95463026Y-120906214D02*
X95534454Y-120763357D01*
X95534454Y-120763357D02*
X95677312Y-120691928D01*
X95677312Y-120691928D02*
X95963026Y-120691928D01*
X95963026Y-120691928D02*
X96105883Y-120763357D01*
X96105883Y-120763357D02*
X96177312Y-120906214D01*
X96177312Y-120906214D02*
X96177312Y-121049071D01*
X96177312Y-121049071D02*
X95463026Y-121191928D01*
X96605883Y-120691928D02*
X97177311Y-120691928D01*
X96820168Y-120191928D02*
X96820168Y-121477642D01*
X96820168Y-121477642D02*
X96891597Y-121620500D01*
X96891597Y-121620500D02*
X97034454Y-121691928D01*
X97034454Y-121691928D02*
X97177311Y-121691928D01*
X97677311Y-121549071D02*
X97748740Y-121620500D01*
X97748740Y-121620500D02*
X97677311Y-121691928D01*
X97677311Y-121691928D02*
X97605883Y-121620500D01*
X97605883Y-121620500D02*
X97677311Y-121549071D01*
X97677311Y-121549071D02*
X97677311Y-121691928D01*
X97677311Y-120763357D02*
X97748740Y-120834785D01*
X97748740Y-120834785D02*
X97677311Y-120906214D01*
X97677311Y-120906214D02*
X97605883Y-120834785D01*
X97605883Y-120834785D02*
X97677311Y-120763357D01*
X97677311Y-120763357D02*
X97677311Y-120906214D01*
D10*
D11*
X92320169Y-115549071D02*
X92248741Y-115620500D01*
X92248741Y-115620500D02*
X92034455Y-115691928D01*
X92034455Y-115691928D02*
X91891598Y-115691928D01*
X91891598Y-115691928D02*
X91677312Y-115620500D01*
X91677312Y-115620500D02*
X91534455Y-115477642D01*
X91534455Y-115477642D02*
X91463026Y-115334785D01*
X91463026Y-115334785D02*
X91391598Y-115049071D01*
X91391598Y-115049071D02*
X91391598Y-114834785D01*
X91391598Y-114834785D02*
X91463026Y-114549071D01*
X91463026Y-114549071D02*
X91534455Y-114406214D01*
X91534455Y-114406214D02*
X91677312Y-114263357D01*
X91677312Y-114263357D02*
X91891598Y-114191928D01*
X91891598Y-114191928D02*
X92034455Y-114191928D01*
X92034455Y-114191928D02*
X92248741Y-114263357D01*
X92248741Y-114263357D02*
X92320169Y-114334785D01*
X92963026Y-115691928D02*
X92963026Y-114191928D01*
X93605884Y-115691928D02*
X93605884Y-114906214D01*
X93605884Y-114906214D02*
X93534455Y-114763357D01*
X93534455Y-114763357D02*
X93391598Y-114691928D01*
X93391598Y-114691928D02*
X93177312Y-114691928D01*
X93177312Y-114691928D02*
X93034455Y-114763357D01*
X93034455Y-114763357D02*
X92963026Y-114834785D01*
X94320169Y-115691928D02*
X94320169Y-114691928D01*
X94320169Y-114977642D02*
X94391598Y-114834785D01*
X94391598Y-114834785D02*
X94463027Y-114763357D01*
X94463027Y-114763357D02*
X94605884Y-114691928D01*
X94605884Y-114691928D02*
X94748741Y-114691928D01*
X95248740Y-115691928D02*
X95248740Y-114691928D01*
X95248740Y-114191928D02*
X95177312Y-114263357D01*
X95177312Y-114263357D02*
X95248740Y-114334785D01*
X95248740Y-114334785D02*
X95320169Y-114263357D01*
X95320169Y-114263357D02*
X95248740Y-114191928D01*
X95248740Y-114191928D02*
X95248740Y-114334785D01*
X95891598Y-115620500D02*
X96034455Y-115691928D01*
X96034455Y-115691928D02*
X96320169Y-115691928D01*
X96320169Y-115691928D02*
X96463026Y-115620500D01*
X96463026Y-115620500D02*
X96534455Y-115477642D01*
X96534455Y-115477642D02*
X96534455Y-115406214D01*
X96534455Y-115406214D02*
X96463026Y-115263357D01*
X96463026Y-115263357D02*
X96320169Y-115191928D01*
X96320169Y-115191928D02*
X96105884Y-115191928D01*
X96105884Y-115191928D02*
X95963026Y-115120500D01*
X95963026Y-115120500D02*
X95891598Y-114977642D01*
X95891598Y-114977642D02*
X95891598Y-114906214D01*
X95891598Y-114906214D02*
X95963026Y-114763357D01*
X95963026Y-114763357D02*
X96105884Y-114691928D01*
X96105884Y-114691928D02*
X96320169Y-114691928D01*
X96320169Y-114691928D02*
X96463026Y-114763357D01*
X96963027Y-114691928D02*
X97534455Y-114691928D01*
X97177312Y-114191928D02*
X97177312Y-115477642D01*
X97177312Y-115477642D02*
X97248741Y-115620500D01*
X97248741Y-115620500D02*
X97391598Y-115691928D01*
X97391598Y-115691928D02*
X97534455Y-115691928D01*
X98034455Y-115691928D02*
X98034455Y-114691928D01*
X98034455Y-114191928D02*
X97963027Y-114263357D01*
X97963027Y-114263357D02*
X98034455Y-114334785D01*
X98034455Y-114334785D02*
X98105884Y-114263357D01*
X98105884Y-114263357D02*
X98034455Y-114191928D01*
X98034455Y-114191928D02*
X98034455Y-114334785D01*
X99391599Y-115691928D02*
X99391599Y-114906214D01*
X99391599Y-114906214D02*
X99320170Y-114763357D01*
X99320170Y-114763357D02*
X99177313Y-114691928D01*
X99177313Y-114691928D02*
X98891599Y-114691928D01*
X98891599Y-114691928D02*
X98748741Y-114763357D01*
X99391599Y-115620500D02*
X99248741Y-115691928D01*
X99248741Y-115691928D02*
X98891599Y-115691928D01*
X98891599Y-115691928D02*
X98748741Y-115620500D01*
X98748741Y-115620500D02*
X98677313Y-115477642D01*
X98677313Y-115477642D02*
X98677313Y-115334785D01*
X98677313Y-115334785D02*
X98748741Y-115191928D01*
X98748741Y-115191928D02*
X98891599Y-115120500D01*
X98891599Y-115120500D02*
X99248741Y-115120500D01*
X99248741Y-115120500D02*
X99391599Y-115049071D01*
X100105884Y-114691928D02*
X100105884Y-115691928D01*
X100105884Y-114834785D02*
X100177313Y-114763357D01*
X100177313Y-114763357D02*
X100320170Y-114691928D01*
X100320170Y-114691928D02*
X100534456Y-114691928D01*
X100534456Y-114691928D02*
X100677313Y-114763357D01*
X100677313Y-114763357D02*
X100748742Y-114906214D01*
X100748742Y-114906214D02*
X100748742Y-115691928D01*
X104177313Y-114191928D02*
X104177313Y-115263357D01*
X104177313Y-115263357D02*
X104105884Y-115477642D01*
X104105884Y-115477642D02*
X103963027Y-115620500D01*
X103963027Y-115620500D02*
X103748741Y-115691928D01*
X103748741Y-115691928D02*
X103605884Y-115691928D01*
X105534456Y-115691928D02*
X105534456Y-114906214D01*
X105534456Y-114906214D02*
X105463027Y-114763357D01*
X105463027Y-114763357D02*
X105320170Y-114691928D01*
X105320170Y-114691928D02*
X105034456Y-114691928D01*
X105034456Y-114691928D02*
X104891598Y-114763357D01*
X105534456Y-115620500D02*
X105391598Y-115691928D01*
X105391598Y-115691928D02*
X105034456Y-115691928D01*
X105034456Y-115691928D02*
X104891598Y-115620500D01*
X104891598Y-115620500D02*
X104820170Y-115477642D01*
X104820170Y-115477642D02*
X104820170Y-115334785D01*
X104820170Y-115334785D02*
X104891598Y-115191928D01*
X104891598Y-115191928D02*
X105034456Y-115120500D01*
X105034456Y-115120500D02*
X105391598Y-115120500D01*
X105391598Y-115120500D02*
X105534456Y-115049071D01*
X106248741Y-115691928D02*
X106248741Y-114691928D01*
X106248741Y-114191928D02*
X106177313Y-114263357D01*
X106177313Y-114263357D02*
X106248741Y-114334785D01*
X106248741Y-114334785D02*
X106320170Y-114263357D01*
X106320170Y-114263357D02*
X106248741Y-114191928D01*
X106248741Y-114191928D02*
X106248741Y-114334785D01*
X106963027Y-115691928D02*
X106963027Y-114691928D01*
X106963027Y-114977642D02*
X107034456Y-114834785D01*
X107034456Y-114834785D02*
X107105885Y-114763357D01*
X107105885Y-114763357D02*
X107248742Y-114691928D01*
X107248742Y-114691928D02*
X107391599Y-114691928D01*
X109891598Y-115691928D02*
X109391598Y-114977642D01*
X109034455Y-115691928D02*
X109034455Y-114191928D01*
X109034455Y-114191928D02*
X109605884Y-114191928D01*
X109605884Y-114191928D02*
X109748741Y-114263357D01*
X109748741Y-114263357D02*
X109820170Y-114334785D01*
X109820170Y-114334785D02*
X109891598Y-114477642D01*
X109891598Y-114477642D02*
X109891598Y-114691928D01*
X109891598Y-114691928D02*
X109820170Y-114834785D01*
X109820170Y-114834785D02*
X109748741Y-114906214D01*
X109748741Y-114906214D02*
X109605884Y-114977642D01*
X109605884Y-114977642D02*
X109034455Y-114977642D01*
X110748741Y-115691928D02*
X110605884Y-115620500D01*
X110605884Y-115620500D02*
X110534455Y-115549071D01*
X110534455Y-115549071D02*
X110463027Y-115406214D01*
X110463027Y-115406214D02*
X110463027Y-114977642D01*
X110463027Y-114977642D02*
X110534455Y-114834785D01*
X110534455Y-114834785D02*
X110605884Y-114763357D01*
X110605884Y-114763357D02*
X110748741Y-114691928D01*
X110748741Y-114691928D02*
X110963027Y-114691928D01*
X110963027Y-114691928D02*
X111105884Y-114763357D01*
X111105884Y-114763357D02*
X111177313Y-114834785D01*
X111177313Y-114834785D02*
X111248741Y-114977642D01*
X111248741Y-114977642D02*
X111248741Y-115406214D01*
X111248741Y-115406214D02*
X111177313Y-115549071D01*
X111177313Y-115549071D02*
X111105884Y-115620500D01*
X111105884Y-115620500D02*
X110963027Y-115691928D01*
X110963027Y-115691928D02*
X110748741Y-115691928D01*
X112534456Y-115691928D02*
X112534456Y-114191928D01*
X112534456Y-115620500D02*
X112391598Y-115691928D01*
X112391598Y-115691928D02*
X112105884Y-115691928D01*
X112105884Y-115691928D02*
X111963027Y-115620500D01*
X111963027Y-115620500D02*
X111891598Y-115549071D01*
X111891598Y-115549071D02*
X111820170Y-115406214D01*
X111820170Y-115406214D02*
X111820170Y-114977642D01*
X111820170Y-114977642D02*
X111891598Y-114834785D01*
X111891598Y-114834785D02*
X111963027Y-114763357D01*
X111963027Y-114763357D02*
X112105884Y-114691928D01*
X112105884Y-114691928D02*
X112391598Y-114691928D01*
X112391598Y-114691928D02*
X112534456Y-114763357D01*
X113248741Y-115691928D02*
X113248741Y-114691928D01*
X113248741Y-114977642D02*
X113320170Y-114834785D01*
X113320170Y-114834785D02*
X113391599Y-114763357D01*
X113391599Y-114763357D02*
X113534456Y-114691928D01*
X113534456Y-114691928D02*
X113677313Y-114691928D01*
X114177312Y-115691928D02*
X114177312Y-114691928D01*
X114320170Y-114120500D02*
X114105884Y-114334785D01*
X115534456Y-114691928D02*
X115534456Y-115906214D01*
X115534456Y-115906214D02*
X115463027Y-116049071D01*
X115463027Y-116049071D02*
X115391598Y-116120500D01*
X115391598Y-116120500D02*
X115248741Y-116191928D01*
X115248741Y-116191928D02*
X115034456Y-116191928D01*
X115034456Y-116191928D02*
X114891598Y-116120500D01*
X115534456Y-115620500D02*
X115391598Y-115691928D01*
X115391598Y-115691928D02*
X115105884Y-115691928D01*
X115105884Y-115691928D02*
X114963027Y-115620500D01*
X114963027Y-115620500D02*
X114891598Y-115549071D01*
X114891598Y-115549071D02*
X114820170Y-115406214D01*
X114820170Y-115406214D02*
X114820170Y-114977642D01*
X114820170Y-114977642D02*
X114891598Y-114834785D01*
X114891598Y-114834785D02*
X114963027Y-114763357D01*
X114963027Y-114763357D02*
X115105884Y-114691928D01*
X115105884Y-114691928D02*
X115391598Y-114691928D01*
X115391598Y-114691928D02*
X115534456Y-114763357D01*
X116891599Y-114691928D02*
X116891599Y-115691928D01*
X116248741Y-114691928D02*
X116248741Y-115477642D01*
X116248741Y-115477642D02*
X116320170Y-115620500D01*
X116320170Y-115620500D02*
X116463027Y-115691928D01*
X116463027Y-115691928D02*
X116677313Y-115691928D01*
X116677313Y-115691928D02*
X116820170Y-115620500D01*
X116820170Y-115620500D02*
X116891599Y-115549071D01*
X118177313Y-115620500D02*
X118034456Y-115691928D01*
X118034456Y-115691928D02*
X117748742Y-115691928D01*
X117748742Y-115691928D02*
X117605884Y-115620500D01*
X117605884Y-115620500D02*
X117534456Y-115477642D01*
X117534456Y-115477642D02*
X117534456Y-114906214D01*
X117534456Y-114906214D02*
X117605884Y-114763357D01*
X117605884Y-114763357D02*
X117748742Y-114691928D01*
X117748742Y-114691928D02*
X118034456Y-114691928D01*
X118034456Y-114691928D02*
X118177313Y-114763357D01*
X118177313Y-114763357D02*
X118248742Y-114906214D01*
X118248742Y-114906214D02*
X118248742Y-115049071D01*
X118248742Y-115049071D02*
X117534456Y-115191928D01*
X118748741Y-114691928D02*
X119534456Y-114691928D01*
X119534456Y-114691928D02*
X118748741Y-115691928D01*
X118748741Y-115691928D02*
X119534456Y-115691928D01*
X121034456Y-114191928D02*
X121534456Y-115691928D01*
X121534456Y-115691928D02*
X122034456Y-114191928D01*
X123177313Y-115691928D02*
X123177313Y-114906214D01*
X123177313Y-114906214D02*
X123105884Y-114763357D01*
X123105884Y-114763357D02*
X122963027Y-114691928D01*
X122963027Y-114691928D02*
X122677313Y-114691928D01*
X122677313Y-114691928D02*
X122534455Y-114763357D01*
X123177313Y-115620500D02*
X123034455Y-115691928D01*
X123034455Y-115691928D02*
X122677313Y-115691928D01*
X122677313Y-115691928D02*
X122534455Y-115620500D01*
X122534455Y-115620500D02*
X122463027Y-115477642D01*
X122463027Y-115477642D02*
X122463027Y-115334785D01*
X122463027Y-115334785D02*
X122534455Y-115191928D01*
X122534455Y-115191928D02*
X122677313Y-115120500D01*
X122677313Y-115120500D02*
X123034455Y-115120500D01*
X123034455Y-115120500D02*
X123177313Y-115049071D01*
X122963027Y-114120500D02*
X122748741Y-114334785D01*
X123748741Y-114691928D02*
X124534456Y-114691928D01*
X124534456Y-114691928D02*
X123748741Y-115691928D01*
X123748741Y-115691928D02*
X124534456Y-115691928D01*
X125748742Y-114691928D02*
X125748742Y-116191928D01*
X125748742Y-115620500D02*
X125605884Y-115691928D01*
X125605884Y-115691928D02*
X125320170Y-115691928D01*
X125320170Y-115691928D02*
X125177313Y-115620500D01*
X125177313Y-115620500D02*
X125105884Y-115549071D01*
X125105884Y-115549071D02*
X125034456Y-115406214D01*
X125034456Y-115406214D02*
X125034456Y-114977642D01*
X125034456Y-114977642D02*
X125105884Y-114834785D01*
X125105884Y-114834785D02*
X125177313Y-114763357D01*
X125177313Y-114763357D02*
X125320170Y-114691928D01*
X125320170Y-114691928D02*
X125605884Y-114691928D01*
X125605884Y-114691928D02*
X125748742Y-114763357D01*
X127105885Y-114691928D02*
X127105885Y-115691928D01*
X126463027Y-114691928D02*
X126463027Y-115477642D01*
X126463027Y-115477642D02*
X126534456Y-115620500D01*
X126534456Y-115620500D02*
X126677313Y-115691928D01*
X126677313Y-115691928D02*
X126891599Y-115691928D01*
X126891599Y-115691928D02*
X127034456Y-115620500D01*
X127034456Y-115620500D02*
X127105885Y-115549071D01*
X128391599Y-115620500D02*
X128248742Y-115691928D01*
X128248742Y-115691928D02*
X127963028Y-115691928D01*
X127963028Y-115691928D02*
X127820170Y-115620500D01*
X127820170Y-115620500D02*
X127748742Y-115477642D01*
X127748742Y-115477642D02*
X127748742Y-114906214D01*
X127748742Y-114906214D02*
X127820170Y-114763357D01*
X127820170Y-114763357D02*
X127963028Y-114691928D01*
X127963028Y-114691928D02*
X128248742Y-114691928D01*
X128248742Y-114691928D02*
X128391599Y-114763357D01*
X128391599Y-114763357D02*
X128463028Y-114906214D01*
X128463028Y-114906214D02*
X128463028Y-115049071D01*
X128463028Y-115049071D02*
X127748742Y-115191928D01*
X128963027Y-114691928D02*
X129748742Y-114691928D01*
X129748742Y-114691928D02*
X128963027Y-115691928D01*
X128963027Y-115691928D02*
X129748742Y-115691928D01*
X131391599Y-114334785D02*
X131463027Y-114263357D01*
X131463027Y-114263357D02*
X131605885Y-114191928D01*
X131605885Y-114191928D02*
X131963027Y-114191928D01*
X131963027Y-114191928D02*
X132105885Y-114263357D01*
X132105885Y-114263357D02*
X132177313Y-114334785D01*
X132177313Y-114334785D02*
X132248742Y-114477642D01*
X132248742Y-114477642D02*
X132248742Y-114620500D01*
X132248742Y-114620500D02*
X132177313Y-114834785D01*
X132177313Y-114834785D02*
X131320170Y-115691928D01*
X131320170Y-115691928D02*
X132248742Y-115691928D01*
X133177313Y-114191928D02*
X133320170Y-114191928D01*
X133320170Y-114191928D02*
X133463027Y-114263357D01*
X133463027Y-114263357D02*
X133534456Y-114334785D01*
X133534456Y-114334785D02*
X133605884Y-114477642D01*
X133605884Y-114477642D02*
X133677313Y-114763357D01*
X133677313Y-114763357D02*
X133677313Y-115120500D01*
X133677313Y-115120500D02*
X133605884Y-115406214D01*
X133605884Y-115406214D02*
X133534456Y-115549071D01*
X133534456Y-115549071D02*
X133463027Y-115620500D01*
X133463027Y-115620500D02*
X133320170Y-115691928D01*
X133320170Y-115691928D02*
X133177313Y-115691928D01*
X133177313Y-115691928D02*
X133034456Y-115620500D01*
X133034456Y-115620500D02*
X132963027Y-115549071D01*
X132963027Y-115549071D02*
X132891598Y-115406214D01*
X132891598Y-115406214D02*
X132820170Y-115120500D01*
X132820170Y-115120500D02*
X132820170Y-114763357D01*
X132820170Y-114763357D02*
X132891598Y-114477642D01*
X132891598Y-114477642D02*
X132963027Y-114334785D01*
X132963027Y-114334785D02*
X133034456Y-114263357D01*
X133034456Y-114263357D02*
X133177313Y-114191928D01*
X134248741Y-114334785D02*
X134320169Y-114263357D01*
X134320169Y-114263357D02*
X134463027Y-114191928D01*
X134463027Y-114191928D02*
X134820169Y-114191928D01*
X134820169Y-114191928D02*
X134963027Y-114263357D01*
X134963027Y-114263357D02*
X135034455Y-114334785D01*
X135034455Y-114334785D02*
X135105884Y-114477642D01*
X135105884Y-114477642D02*
X135105884Y-114620500D01*
X135105884Y-114620500D02*
X135034455Y-114834785D01*
X135034455Y-114834785D02*
X134177312Y-115691928D01*
X134177312Y-115691928D02*
X135105884Y-115691928D01*
X135605883Y-114191928D02*
X136534455Y-114191928D01*
X136534455Y-114191928D02*
X136034455Y-114763357D01*
X136034455Y-114763357D02*
X136248740Y-114763357D01*
X136248740Y-114763357D02*
X136391598Y-114834785D01*
X136391598Y-114834785D02*
X136463026Y-114906214D01*
X136463026Y-114906214D02*
X136534455Y-115049071D01*
X136534455Y-115049071D02*
X136534455Y-115406214D01*
X136534455Y-115406214D02*
X136463026Y-115549071D01*
X136463026Y-115549071D02*
X136391598Y-115620500D01*
X136391598Y-115620500D02*
X136248740Y-115691928D01*
X136248740Y-115691928D02*
X135820169Y-115691928D01*
X135820169Y-115691928D02*
X135677312Y-115620500D01*
X135677312Y-115620500D02*
X135605883Y-115549071D01*
X137891597Y-114191928D02*
X137177311Y-114191928D01*
X137177311Y-114191928D02*
X137105883Y-114906214D01*
X137105883Y-114906214D02*
X137177311Y-114834785D01*
X137177311Y-114834785D02*
X137320169Y-114763357D01*
X137320169Y-114763357D02*
X137677311Y-114763357D01*
X137677311Y-114763357D02*
X137820169Y-114834785D01*
X137820169Y-114834785D02*
X137891597Y-114906214D01*
X137891597Y-114906214D02*
X137963026Y-115049071D01*
X137963026Y-115049071D02*
X137963026Y-115406214D01*
X137963026Y-115406214D02*
X137891597Y-115549071D01*
X137891597Y-115549071D02*
X137820169Y-115620500D01*
X137820169Y-115620500D02*
X137677311Y-115691928D01*
X137677311Y-115691928D02*
X137320169Y-115691928D01*
X137320169Y-115691928D02*
X137177311Y-115620500D01*
X137177311Y-115620500D02*
X137105883Y-115549071D01*
X138463025Y-114191928D02*
X139391597Y-114191928D01*
X139391597Y-114191928D02*
X138891597Y-114763357D01*
X138891597Y-114763357D02*
X139105882Y-114763357D01*
X139105882Y-114763357D02*
X139248740Y-114834785D01*
X139248740Y-114834785D02*
X139320168Y-114906214D01*
X139320168Y-114906214D02*
X139391597Y-115049071D01*
X139391597Y-115049071D02*
X139391597Y-115406214D01*
X139391597Y-115406214D02*
X139320168Y-115549071D01*
X139320168Y-115549071D02*
X139248740Y-115620500D01*
X139248740Y-115620500D02*
X139105882Y-115691928D01*
X139105882Y-115691928D02*
X138677311Y-115691928D01*
X138677311Y-115691928D02*
X138534454Y-115620500D01*
X138534454Y-115620500D02*
X138463025Y-115549071D01*
D10*
D11*
X91463026Y-112691928D02*
X91463026Y-111191928D01*
X91463026Y-111191928D02*
X91820169Y-111191928D01*
X91820169Y-111191928D02*
X92034455Y-111263357D01*
X92034455Y-111263357D02*
X92177312Y-111406214D01*
X92177312Y-111406214D02*
X92248741Y-111549071D01*
X92248741Y-111549071D02*
X92320169Y-111834785D01*
X92320169Y-111834785D02*
X92320169Y-112049071D01*
X92320169Y-112049071D02*
X92248741Y-112334785D01*
X92248741Y-112334785D02*
X92177312Y-112477642D01*
X92177312Y-112477642D02*
X92034455Y-112620500D01*
X92034455Y-112620500D02*
X91820169Y-112691928D01*
X91820169Y-112691928D02*
X91463026Y-112691928D01*
X93605884Y-111691928D02*
X93605884Y-112691928D01*
X92963026Y-111691928D02*
X92963026Y-112477642D01*
X92963026Y-112477642D02*
X93034455Y-112620500D01*
X93034455Y-112620500D02*
X93177312Y-112691928D01*
X93177312Y-112691928D02*
X93391598Y-112691928D01*
X93391598Y-112691928D02*
X93534455Y-112620500D01*
X93534455Y-112620500D02*
X93605884Y-112549071D01*
X94320169Y-112691928D02*
X94320169Y-111691928D01*
X94320169Y-111977642D02*
X94391598Y-111834785D01*
X94391598Y-111834785D02*
X94463027Y-111763357D01*
X94463027Y-111763357D02*
X94605884Y-111691928D01*
X94605884Y-111691928D02*
X94748741Y-111691928D01*
X95891598Y-112691928D02*
X95891598Y-111906214D01*
X95891598Y-111906214D02*
X95820169Y-111763357D01*
X95820169Y-111763357D02*
X95677312Y-111691928D01*
X95677312Y-111691928D02*
X95391598Y-111691928D01*
X95391598Y-111691928D02*
X95248740Y-111763357D01*
X95891598Y-112620500D02*
X95748740Y-112691928D01*
X95748740Y-112691928D02*
X95391598Y-112691928D01*
X95391598Y-112691928D02*
X95248740Y-112620500D01*
X95248740Y-112620500D02*
X95177312Y-112477642D01*
X95177312Y-112477642D02*
X95177312Y-112334785D01*
X95177312Y-112334785D02*
X95248740Y-112191928D01*
X95248740Y-112191928D02*
X95391598Y-112120500D01*
X95391598Y-112120500D02*
X95748740Y-112120500D01*
X95748740Y-112120500D02*
X95891598Y-112049071D01*
X96605883Y-111691928D02*
X96605883Y-112691928D01*
X96605883Y-111834785D02*
X96677312Y-111763357D01*
X96677312Y-111763357D02*
X96820169Y-111691928D01*
X96820169Y-111691928D02*
X97034455Y-111691928D01*
X97034455Y-111691928D02*
X97177312Y-111763357D01*
X97177312Y-111763357D02*
X97248741Y-111906214D01*
X97248741Y-111906214D02*
X97248741Y-112691928D01*
X99963026Y-112549071D02*
X99891598Y-112620500D01*
X99891598Y-112620500D02*
X99677312Y-112691928D01*
X99677312Y-112691928D02*
X99534455Y-112691928D01*
X99534455Y-112691928D02*
X99320169Y-112620500D01*
X99320169Y-112620500D02*
X99177312Y-112477642D01*
X99177312Y-112477642D02*
X99105883Y-112334785D01*
X99105883Y-112334785D02*
X99034455Y-112049071D01*
X99034455Y-112049071D02*
X99034455Y-111834785D01*
X99034455Y-111834785D02*
X99105883Y-111549071D01*
X99105883Y-111549071D02*
X99177312Y-111406214D01*
X99177312Y-111406214D02*
X99320169Y-111263357D01*
X99320169Y-111263357D02*
X99534455Y-111191928D01*
X99534455Y-111191928D02*
X99677312Y-111191928D01*
X99677312Y-111191928D02*
X99891598Y-111263357D01*
X99891598Y-111263357D02*
X99963026Y-111334785D01*
X100605883Y-112691928D02*
X100605883Y-111191928D01*
X101248741Y-112691928D02*
X101248741Y-111906214D01*
X101248741Y-111906214D02*
X101177312Y-111763357D01*
X101177312Y-111763357D02*
X101034455Y-111691928D01*
X101034455Y-111691928D02*
X100820169Y-111691928D01*
X100820169Y-111691928D02*
X100677312Y-111763357D01*
X100677312Y-111763357D02*
X100605883Y-111834785D01*
X102605884Y-112691928D02*
X102605884Y-111906214D01*
X102605884Y-111906214D02*
X102534455Y-111763357D01*
X102534455Y-111763357D02*
X102391598Y-111691928D01*
X102391598Y-111691928D02*
X102105884Y-111691928D01*
X102105884Y-111691928D02*
X101963026Y-111763357D01*
X102605884Y-112620500D02*
X102463026Y-112691928D01*
X102463026Y-112691928D02*
X102105884Y-112691928D01*
X102105884Y-112691928D02*
X101963026Y-112620500D01*
X101963026Y-112620500D02*
X101891598Y-112477642D01*
X101891598Y-112477642D02*
X101891598Y-112334785D01*
X101891598Y-112334785D02*
X101963026Y-112191928D01*
X101963026Y-112191928D02*
X102105884Y-112120500D01*
X102105884Y-112120500D02*
X102463026Y-112120500D01*
X102463026Y-112120500D02*
X102605884Y-112049071D01*
X103963027Y-112620500D02*
X103820169Y-112691928D01*
X103820169Y-112691928D02*
X103534455Y-112691928D01*
X103534455Y-112691928D02*
X103391598Y-112620500D01*
X103391598Y-112620500D02*
X103320169Y-112549071D01*
X103320169Y-112549071D02*
X103248741Y-112406214D01*
X103248741Y-112406214D02*
X103248741Y-111977642D01*
X103248741Y-111977642D02*
X103320169Y-111834785D01*
X103320169Y-111834785D02*
X103391598Y-111763357D01*
X103391598Y-111763357D02*
X103534455Y-111691928D01*
X103534455Y-111691928D02*
X103820169Y-111691928D01*
X103820169Y-111691928D02*
X103963027Y-111763357D01*
X104820169Y-112691928D02*
X104677312Y-112620500D01*
X104677312Y-112620500D02*
X104605883Y-112549071D01*
X104605883Y-112549071D02*
X104534455Y-112406214D01*
X104534455Y-112406214D02*
X104534455Y-111977642D01*
X104534455Y-111977642D02*
X104605883Y-111834785D01*
X104605883Y-111834785D02*
X104677312Y-111763357D01*
X104677312Y-111763357D02*
X104820169Y-111691928D01*
X104820169Y-111691928D02*
X105034455Y-111691928D01*
X105034455Y-111691928D02*
X105177312Y-111763357D01*
X105177312Y-111763357D02*
X105248741Y-111834785D01*
X105248741Y-111834785D02*
X105320169Y-111977642D01*
X105320169Y-111977642D02*
X105320169Y-112406214D01*
X105320169Y-112406214D02*
X105248741Y-112549071D01*
X105248741Y-112549071D02*
X105177312Y-112620500D01*
X105177312Y-112620500D02*
X105034455Y-112691928D01*
X105034455Y-112691928D02*
X104820169Y-112691928D01*
X105105883Y-111120500D02*
X104891598Y-111334785D01*
X105963026Y-111691928D02*
X105963026Y-112691928D01*
X105963026Y-111834785D02*
X106034455Y-111763357D01*
X106034455Y-111763357D02*
X106177312Y-111691928D01*
X106177312Y-111691928D02*
X106391598Y-111691928D01*
X106391598Y-111691928D02*
X106534455Y-111763357D01*
X106534455Y-111763357D02*
X106605884Y-111906214D01*
X106605884Y-111906214D02*
X106605884Y-112691928D01*
X108891598Y-111191928D02*
X108891598Y-112263357D01*
X108891598Y-112263357D02*
X108820169Y-112477642D01*
X108820169Y-112477642D02*
X108677312Y-112620500D01*
X108677312Y-112620500D02*
X108463026Y-112691928D01*
X108463026Y-112691928D02*
X108320169Y-112691928D01*
X110248741Y-112691928D02*
X110248741Y-111906214D01*
X110248741Y-111906214D02*
X110177312Y-111763357D01*
X110177312Y-111763357D02*
X110034455Y-111691928D01*
X110034455Y-111691928D02*
X109748741Y-111691928D01*
X109748741Y-111691928D02*
X109605883Y-111763357D01*
X110248741Y-112620500D02*
X110105883Y-112691928D01*
X110105883Y-112691928D02*
X109748741Y-112691928D01*
X109748741Y-112691928D02*
X109605883Y-112620500D01*
X109605883Y-112620500D02*
X109534455Y-112477642D01*
X109534455Y-112477642D02*
X109534455Y-112334785D01*
X109534455Y-112334785D02*
X109605883Y-112191928D01*
X109605883Y-112191928D02*
X109748741Y-112120500D01*
X109748741Y-112120500D02*
X110105883Y-112120500D01*
X110105883Y-112120500D02*
X110248741Y-112049071D01*
X110820169Y-111691928D02*
X111605884Y-111691928D01*
X111605884Y-111691928D02*
X110820169Y-112691928D01*
X110820169Y-112691928D02*
X111605884Y-112691928D01*
X112177312Y-112691928D02*
X112177312Y-111691928D01*
X112177312Y-111834785D02*
X112248741Y-111763357D01*
X112248741Y-111763357D02*
X112391598Y-111691928D01*
X112391598Y-111691928D02*
X112605884Y-111691928D01*
X112605884Y-111691928D02*
X112748741Y-111763357D01*
X112748741Y-111763357D02*
X112820170Y-111906214D01*
X112820170Y-111906214D02*
X112820170Y-112691928D01*
X112820170Y-111906214D02*
X112891598Y-111763357D01*
X112891598Y-111763357D02*
X113034455Y-111691928D01*
X113034455Y-111691928D02*
X113248741Y-111691928D01*
X113248741Y-111691928D02*
X113391598Y-111763357D01*
X113391598Y-111763357D02*
X113463027Y-111906214D01*
X113463027Y-111906214D02*
X113463027Y-112691928D01*
X114177312Y-112691928D02*
X114177312Y-111691928D01*
X114177312Y-111191928D02*
X114105884Y-111263357D01*
X114105884Y-111263357D02*
X114177312Y-111334785D01*
X114177312Y-111334785D02*
X114248741Y-111263357D01*
X114248741Y-111263357D02*
X114177312Y-111191928D01*
X114177312Y-111191928D02*
X114177312Y-111334785D01*
X114891598Y-111691928D02*
X114891598Y-112691928D01*
X114891598Y-111834785D02*
X114963027Y-111763357D01*
X114963027Y-111763357D02*
X115105884Y-111691928D01*
X115105884Y-111691928D02*
X115320170Y-111691928D01*
X115320170Y-111691928D02*
X115463027Y-111763357D01*
X115463027Y-111763357D02*
X115534456Y-111906214D01*
X115534456Y-111906214D02*
X115534456Y-112691928D01*
X117320170Y-112263357D02*
X118034456Y-112263357D01*
X117177313Y-112691928D02*
X117677313Y-111191928D01*
X117677313Y-111191928D02*
X118177313Y-112691928D01*
X118677312Y-111691928D02*
X118677312Y-112691928D01*
X118677312Y-111834785D02*
X118748741Y-111763357D01*
X118748741Y-111763357D02*
X118891598Y-111691928D01*
X118891598Y-111691928D02*
X119105884Y-111691928D01*
X119105884Y-111691928D02*
X119248741Y-111763357D01*
X119248741Y-111763357D02*
X119320170Y-111906214D01*
X119320170Y-111906214D02*
X119320170Y-112691928D01*
X120677313Y-112691928D02*
X120677313Y-111191928D01*
X120677313Y-112620500D02*
X120534455Y-112691928D01*
X120534455Y-112691928D02*
X120248741Y-112691928D01*
X120248741Y-112691928D02*
X120105884Y-112620500D01*
X120105884Y-112620500D02*
X120034455Y-112549071D01*
X120034455Y-112549071D02*
X119963027Y-112406214D01*
X119963027Y-112406214D02*
X119963027Y-111977642D01*
X119963027Y-111977642D02*
X120034455Y-111834785D01*
X120034455Y-111834785D02*
X120105884Y-111763357D01*
X120105884Y-111763357D02*
X120248741Y-111691928D01*
X120248741Y-111691928D02*
X120534455Y-111691928D01*
X120534455Y-111691928D02*
X120677313Y-111763357D01*
X121391598Y-112691928D02*
X121391598Y-111691928D01*
X121391598Y-111977642D02*
X121463027Y-111834785D01*
X121463027Y-111834785D02*
X121534456Y-111763357D01*
X121534456Y-111763357D02*
X121677313Y-111691928D01*
X121677313Y-111691928D02*
X121820170Y-111691928D01*
X122891598Y-112620500D02*
X122748741Y-112691928D01*
X122748741Y-112691928D02*
X122463027Y-112691928D01*
X122463027Y-112691928D02*
X122320169Y-112620500D01*
X122320169Y-112620500D02*
X122248741Y-112477642D01*
X122248741Y-112477642D02*
X122248741Y-111906214D01*
X122248741Y-111906214D02*
X122320169Y-111763357D01*
X122320169Y-111763357D02*
X122463027Y-111691928D01*
X122463027Y-111691928D02*
X122748741Y-111691928D01*
X122748741Y-111691928D02*
X122891598Y-111763357D01*
X122891598Y-111763357D02*
X122963027Y-111906214D01*
X122963027Y-111906214D02*
X122963027Y-112049071D01*
X122963027Y-112049071D02*
X122248741Y-112191928D01*
X124248741Y-112691928D02*
X124248741Y-111906214D01*
X124248741Y-111906214D02*
X124177312Y-111763357D01*
X124177312Y-111763357D02*
X124034455Y-111691928D01*
X124034455Y-111691928D02*
X123748741Y-111691928D01*
X123748741Y-111691928D02*
X123605883Y-111763357D01*
X124248741Y-112620500D02*
X124105883Y-112691928D01*
X124105883Y-112691928D02*
X123748741Y-112691928D01*
X123748741Y-112691928D02*
X123605883Y-112620500D01*
X123605883Y-112620500D02*
X123534455Y-112477642D01*
X123534455Y-112477642D02*
X123534455Y-112334785D01*
X123534455Y-112334785D02*
X123605883Y-112191928D01*
X123605883Y-112191928D02*
X123748741Y-112120500D01*
X123748741Y-112120500D02*
X124105883Y-112120500D01*
X124105883Y-112120500D02*
X124248741Y-112049071D01*
X126891598Y-112691928D02*
X126034455Y-112691928D01*
X126463026Y-112691928D02*
X126463026Y-111191928D01*
X126463026Y-111191928D02*
X126320169Y-111406214D01*
X126320169Y-111406214D02*
X126177312Y-111549071D01*
X126177312Y-111549071D02*
X126034455Y-111620500D01*
X127605883Y-112691928D02*
X127891597Y-112691928D01*
X127891597Y-112691928D02*
X128034454Y-112620500D01*
X128034454Y-112620500D02*
X128105883Y-112549071D01*
X128105883Y-112549071D02*
X128248740Y-112334785D01*
X128248740Y-112334785D02*
X128320169Y-112049071D01*
X128320169Y-112049071D02*
X128320169Y-111477642D01*
X128320169Y-111477642D02*
X128248740Y-111334785D01*
X128248740Y-111334785D02*
X128177312Y-111263357D01*
X128177312Y-111263357D02*
X128034454Y-111191928D01*
X128034454Y-111191928D02*
X127748740Y-111191928D01*
X127748740Y-111191928D02*
X127605883Y-111263357D01*
X127605883Y-111263357D02*
X127534454Y-111334785D01*
X127534454Y-111334785D02*
X127463026Y-111477642D01*
X127463026Y-111477642D02*
X127463026Y-111834785D01*
X127463026Y-111834785D02*
X127534454Y-111977642D01*
X127534454Y-111977642D02*
X127605883Y-112049071D01*
X127605883Y-112049071D02*
X127748740Y-112120500D01*
X127748740Y-112120500D02*
X128034454Y-112120500D01*
X128034454Y-112120500D02*
X128177312Y-112049071D01*
X128177312Y-112049071D02*
X128248740Y-111977642D01*
X128248740Y-111977642D02*
X128320169Y-111834785D01*
X128891597Y-111334785D02*
X128963025Y-111263357D01*
X128963025Y-111263357D02*
X129105883Y-111191928D01*
X129105883Y-111191928D02*
X129463025Y-111191928D01*
X129463025Y-111191928D02*
X129605883Y-111263357D01*
X129605883Y-111263357D02*
X129677311Y-111334785D01*
X129677311Y-111334785D02*
X129748740Y-111477642D01*
X129748740Y-111477642D02*
X129748740Y-111620500D01*
X129748740Y-111620500D02*
X129677311Y-111834785D01*
X129677311Y-111834785D02*
X128820168Y-112691928D01*
X128820168Y-112691928D02*
X129748740Y-112691928D01*
X130248739Y-111191928D02*
X131248739Y-111191928D01*
X131248739Y-111191928D02*
X130605882Y-112691928D01*
X131677310Y-111191928D02*
X132605882Y-111191928D01*
X132605882Y-111191928D02*
X132105882Y-111763357D01*
X132105882Y-111763357D02*
X132320167Y-111763357D01*
X132320167Y-111763357D02*
X132463025Y-111834785D01*
X132463025Y-111834785D02*
X132534453Y-111906214D01*
X132534453Y-111906214D02*
X132605882Y-112049071D01*
X132605882Y-112049071D02*
X132605882Y-112406214D01*
X132605882Y-112406214D02*
X132534453Y-112549071D01*
X132534453Y-112549071D02*
X132463025Y-112620500D01*
X132463025Y-112620500D02*
X132320167Y-112691928D01*
X132320167Y-112691928D02*
X131891596Y-112691928D01*
X131891596Y-112691928D02*
X131748739Y-112620500D01*
X131748739Y-112620500D02*
X131677310Y-112549071D01*
X133463024Y-111834785D02*
X133320167Y-111763357D01*
X133320167Y-111763357D02*
X133248738Y-111691928D01*
X133248738Y-111691928D02*
X133177310Y-111549071D01*
X133177310Y-111549071D02*
X133177310Y-111477642D01*
X133177310Y-111477642D02*
X133248738Y-111334785D01*
X133248738Y-111334785D02*
X133320167Y-111263357D01*
X133320167Y-111263357D02*
X133463024Y-111191928D01*
X133463024Y-111191928D02*
X133748738Y-111191928D01*
X133748738Y-111191928D02*
X133891596Y-111263357D01*
X133891596Y-111263357D02*
X133963024Y-111334785D01*
X133963024Y-111334785D02*
X134034453Y-111477642D01*
X134034453Y-111477642D02*
X134034453Y-111549071D01*
X134034453Y-111549071D02*
X133963024Y-111691928D01*
X133963024Y-111691928D02*
X133891596Y-111763357D01*
X133891596Y-111763357D02*
X133748738Y-111834785D01*
X133748738Y-111834785D02*
X133463024Y-111834785D01*
X133463024Y-111834785D02*
X133320167Y-111906214D01*
X133320167Y-111906214D02*
X133248738Y-111977642D01*
X133248738Y-111977642D02*
X133177310Y-112120500D01*
X133177310Y-112120500D02*
X133177310Y-112406214D01*
X133177310Y-112406214D02*
X133248738Y-112549071D01*
X133248738Y-112549071D02*
X133320167Y-112620500D01*
X133320167Y-112620500D02*
X133463024Y-112691928D01*
X133463024Y-112691928D02*
X133748738Y-112691928D01*
X133748738Y-112691928D02*
X133891596Y-112620500D01*
X133891596Y-112620500D02*
X133963024Y-112549071D01*
X133963024Y-112549071D02*
X134034453Y-112406214D01*
X134034453Y-112406214D02*
X134034453Y-112120500D01*
X134034453Y-112120500D02*
X133963024Y-111977642D01*
X133963024Y-111977642D02*
X133891596Y-111906214D01*
X133891596Y-111906214D02*
X133748738Y-111834785D01*
X134748738Y-112620500D02*
X134748738Y-112691928D01*
X134748738Y-112691928D02*
X134677309Y-112834785D01*
X134677309Y-112834785D02*
X134605881Y-112906214D01*
X137034452Y-111906214D02*
X136534452Y-111906214D01*
X136534452Y-112691928D02*
X136534452Y-111191928D01*
X136534452Y-111191928D02*
X137248738Y-111191928D01*
X138391595Y-112620500D02*
X138248738Y-112691928D01*
X138248738Y-112691928D02*
X137963024Y-112691928D01*
X137963024Y-112691928D02*
X137820166Y-112620500D01*
X137820166Y-112620500D02*
X137748738Y-112477642D01*
X137748738Y-112477642D02*
X137748738Y-111906214D01*
X137748738Y-111906214D02*
X137820166Y-111763357D01*
X137820166Y-111763357D02*
X137963024Y-111691928D01*
X137963024Y-111691928D02*
X138248738Y-111691928D01*
X138248738Y-111691928D02*
X138391595Y-111763357D01*
X138391595Y-111763357D02*
X138463024Y-111906214D01*
X138463024Y-111906214D02*
X138463024Y-112049071D01*
X138463024Y-112049071D02*
X137748738Y-112191928D01*
X139105880Y-112691928D02*
X139105880Y-111691928D01*
X139105880Y-111977642D02*
X139177309Y-111834785D01*
X139177309Y-111834785D02*
X139248738Y-111763357D01*
X139248738Y-111763357D02*
X139391595Y-111691928D01*
X139391595Y-111691928D02*
X139534452Y-111691928D01*
X140034451Y-111691928D02*
X140034451Y-112691928D01*
X140034451Y-111834785D02*
X140105880Y-111763357D01*
X140105880Y-111763357D02*
X140248737Y-111691928D01*
X140248737Y-111691928D02*
X140463023Y-111691928D01*
X140463023Y-111691928D02*
X140605880Y-111763357D01*
X140605880Y-111763357D02*
X140677309Y-111906214D01*
X140677309Y-111906214D02*
X140677309Y-112691928D01*
X142034452Y-112691928D02*
X142034452Y-111906214D01*
X142034452Y-111906214D02*
X141963023Y-111763357D01*
X141963023Y-111763357D02*
X141820166Y-111691928D01*
X141820166Y-111691928D02*
X141534452Y-111691928D01*
X141534452Y-111691928D02*
X141391594Y-111763357D01*
X142034452Y-112620500D02*
X141891594Y-112691928D01*
X141891594Y-112691928D02*
X141534452Y-112691928D01*
X141534452Y-112691928D02*
X141391594Y-112620500D01*
X141391594Y-112620500D02*
X141320166Y-112477642D01*
X141320166Y-112477642D02*
X141320166Y-112334785D01*
X141320166Y-112334785D02*
X141391594Y-112191928D01*
X141391594Y-112191928D02*
X141534452Y-112120500D01*
X141534452Y-112120500D02*
X141891594Y-112120500D01*
X141891594Y-112120500D02*
X142034452Y-112049071D01*
X142748737Y-111691928D02*
X142748737Y-112691928D01*
X142748737Y-111834785D02*
X142820166Y-111763357D01*
X142820166Y-111763357D02*
X142963023Y-111691928D01*
X142963023Y-111691928D02*
X143177309Y-111691928D01*
X143177309Y-111691928D02*
X143320166Y-111763357D01*
X143320166Y-111763357D02*
X143391595Y-111906214D01*
X143391595Y-111906214D02*
X143391595Y-112691928D01*
X144748738Y-112691928D02*
X144748738Y-111191928D01*
X144748738Y-112620500D02*
X144605880Y-112691928D01*
X144605880Y-112691928D02*
X144320166Y-112691928D01*
X144320166Y-112691928D02*
X144177309Y-112620500D01*
X144177309Y-112620500D02*
X144105880Y-112549071D01*
X144105880Y-112549071D02*
X144034452Y-112406214D01*
X144034452Y-112406214D02*
X144034452Y-111977642D01*
X144034452Y-111977642D02*
X144105880Y-111834785D01*
X144105880Y-111834785D02*
X144177309Y-111763357D01*
X144177309Y-111763357D02*
X144320166Y-111691928D01*
X144320166Y-111691928D02*
X144605880Y-111691928D01*
X144605880Y-111691928D02*
X144748738Y-111763357D01*
X146105881Y-112691928D02*
X146105881Y-111906214D01*
X146105881Y-111906214D02*
X146034452Y-111763357D01*
X146034452Y-111763357D02*
X145891595Y-111691928D01*
X145891595Y-111691928D02*
X145605881Y-111691928D01*
X145605881Y-111691928D02*
X145463023Y-111763357D01*
X146105881Y-112620500D02*
X145963023Y-112691928D01*
X145963023Y-112691928D02*
X145605881Y-112691928D01*
X145605881Y-112691928D02*
X145463023Y-112620500D01*
X145463023Y-112620500D02*
X145391595Y-112477642D01*
X145391595Y-112477642D02*
X145391595Y-112334785D01*
X145391595Y-112334785D02*
X145463023Y-112191928D01*
X145463023Y-112191928D02*
X145605881Y-112120500D01*
X145605881Y-112120500D02*
X145963023Y-112120500D01*
X145963023Y-112120500D02*
X146105881Y-112049071D01*
X147891595Y-112263357D02*
X148605881Y-112263357D01*
X147748738Y-112691928D02*
X148248738Y-111191928D01*
X148248738Y-111191928D02*
X148748738Y-112691928D01*
X149463023Y-112691928D02*
X149320166Y-112620500D01*
X149320166Y-112620500D02*
X149248737Y-112477642D01*
X149248737Y-112477642D02*
X149248737Y-111191928D01*
X150605880Y-112620500D02*
X150463023Y-112691928D01*
X150463023Y-112691928D02*
X150177309Y-112691928D01*
X150177309Y-112691928D02*
X150034451Y-112620500D01*
X150034451Y-112620500D02*
X149963023Y-112477642D01*
X149963023Y-112477642D02*
X149963023Y-111906214D01*
X149963023Y-111906214D02*
X150034451Y-111763357D01*
X150034451Y-111763357D02*
X150177309Y-111691928D01*
X150177309Y-111691928D02*
X150463023Y-111691928D01*
X150463023Y-111691928D02*
X150605880Y-111763357D01*
X150605880Y-111763357D02*
X150677309Y-111906214D01*
X150677309Y-111906214D02*
X150677309Y-112049071D01*
X150677309Y-112049071D02*
X149963023Y-112191928D01*
X151320165Y-112691928D02*
X151320165Y-111691928D01*
X151320165Y-111834785D02*
X151391594Y-111763357D01*
X151391594Y-111763357D02*
X151534451Y-111691928D01*
X151534451Y-111691928D02*
X151748737Y-111691928D01*
X151748737Y-111691928D02*
X151891594Y-111763357D01*
X151891594Y-111763357D02*
X151963023Y-111906214D01*
X151963023Y-111906214D02*
X151963023Y-112691928D01*
X151963023Y-111906214D02*
X152034451Y-111763357D01*
X152034451Y-111763357D02*
X152177308Y-111691928D01*
X152177308Y-111691928D02*
X152391594Y-111691928D01*
X152391594Y-111691928D02*
X152534451Y-111763357D01*
X152534451Y-111763357D02*
X152605880Y-111906214D01*
X152605880Y-111906214D02*
X152605880Y-112691928D01*
X153320165Y-112691928D02*
X153320165Y-111691928D01*
X153320165Y-111191928D02*
X153248737Y-111263357D01*
X153248737Y-111263357D02*
X153320165Y-111334785D01*
X153320165Y-111334785D02*
X153391594Y-111263357D01*
X153391594Y-111263357D02*
X153320165Y-111191928D01*
X153320165Y-111191928D02*
X153320165Y-111334785D01*
X154034451Y-112691928D02*
X154034451Y-111691928D01*
X154034451Y-111977642D02*
X154105880Y-111834785D01*
X154105880Y-111834785D02*
X154177309Y-111763357D01*
X154177309Y-111763357D02*
X154320166Y-111691928D01*
X154320166Y-111691928D02*
X154463023Y-111691928D01*
X156963022Y-112549071D02*
X156891594Y-112620500D01*
X156891594Y-112620500D02*
X156677308Y-112691928D01*
X156677308Y-112691928D02*
X156534451Y-112691928D01*
X156534451Y-112691928D02*
X156320165Y-112620500D01*
X156320165Y-112620500D02*
X156177308Y-112477642D01*
X156177308Y-112477642D02*
X156105879Y-112334785D01*
X156105879Y-112334785D02*
X156034451Y-112049071D01*
X156034451Y-112049071D02*
X156034451Y-111834785D01*
X156034451Y-111834785D02*
X156105879Y-111549071D01*
X156105879Y-111549071D02*
X156177308Y-111406214D01*
X156177308Y-111406214D02*
X156320165Y-111263357D01*
X156320165Y-111263357D02*
X156534451Y-111191928D01*
X156534451Y-111191928D02*
X156677308Y-111191928D01*
X156677308Y-111191928D02*
X156891594Y-111263357D01*
X156891594Y-111263357D02*
X156963022Y-111334785D01*
X158248737Y-112691928D02*
X158248737Y-111906214D01*
X158248737Y-111906214D02*
X158177308Y-111763357D01*
X158177308Y-111763357D02*
X158034451Y-111691928D01*
X158034451Y-111691928D02*
X157748737Y-111691928D01*
X157748737Y-111691928D02*
X157605879Y-111763357D01*
X158248737Y-112620500D02*
X158105879Y-112691928D01*
X158105879Y-112691928D02*
X157748737Y-112691928D01*
X157748737Y-112691928D02*
X157605879Y-112620500D01*
X157605879Y-112620500D02*
X157534451Y-112477642D01*
X157534451Y-112477642D02*
X157534451Y-112334785D01*
X157534451Y-112334785D02*
X157605879Y-112191928D01*
X157605879Y-112191928D02*
X157748737Y-112120500D01*
X157748737Y-112120500D02*
X158105879Y-112120500D01*
X158105879Y-112120500D02*
X158248737Y-112049071D01*
X158891594Y-112620500D02*
X159034451Y-112691928D01*
X159034451Y-112691928D02*
X159320165Y-112691928D01*
X159320165Y-112691928D02*
X159463022Y-112620500D01*
X159463022Y-112620500D02*
X159534451Y-112477642D01*
X159534451Y-112477642D02*
X159534451Y-112406214D01*
X159534451Y-112406214D02*
X159463022Y-112263357D01*
X159463022Y-112263357D02*
X159320165Y-112191928D01*
X159320165Y-112191928D02*
X159105880Y-112191928D01*
X159105880Y-112191928D02*
X158963022Y-112120500D01*
X158963022Y-112120500D02*
X158891594Y-111977642D01*
X158891594Y-111977642D02*
X158891594Y-111906214D01*
X158891594Y-111906214D02*
X158963022Y-111763357D01*
X158963022Y-111763357D02*
X159105880Y-111691928D01*
X159105880Y-111691928D02*
X159320165Y-111691928D01*
X159320165Y-111691928D02*
X159463022Y-111763357D01*
X159963023Y-111691928D02*
X160534451Y-111691928D01*
X160177308Y-111191928D02*
X160177308Y-112477642D01*
X160177308Y-112477642D02*
X160248737Y-112620500D01*
X160248737Y-112620500D02*
X160391594Y-112691928D01*
X160391594Y-112691928D02*
X160534451Y-112691928D01*
X161677309Y-112691928D02*
X161677309Y-111906214D01*
X161677309Y-111906214D02*
X161605880Y-111763357D01*
X161605880Y-111763357D02*
X161463023Y-111691928D01*
X161463023Y-111691928D02*
X161177309Y-111691928D01*
X161177309Y-111691928D02*
X161034451Y-111763357D01*
X161677309Y-112620500D02*
X161534451Y-112691928D01*
X161534451Y-112691928D02*
X161177309Y-112691928D01*
X161177309Y-112691928D02*
X161034451Y-112620500D01*
X161034451Y-112620500D02*
X160963023Y-112477642D01*
X160963023Y-112477642D02*
X160963023Y-112334785D01*
X160963023Y-112334785D02*
X161034451Y-112191928D01*
X161034451Y-112191928D02*
X161177309Y-112120500D01*
X161177309Y-112120500D02*
X161534451Y-112120500D01*
X161534451Y-112120500D02*
X161677309Y-112049071D01*
X162391594Y-111691928D02*
X162391594Y-112691928D01*
X162391594Y-111834785D02*
X162463023Y-111763357D01*
X162463023Y-111763357D02*
X162605880Y-111691928D01*
X162605880Y-111691928D02*
X162820166Y-111691928D01*
X162820166Y-111691928D02*
X162963023Y-111763357D01*
X162963023Y-111763357D02*
X163034452Y-111906214D01*
X163034452Y-111906214D02*
X163034452Y-112691928D01*
X162320166Y-111334785D02*
X162391594Y-111263357D01*
X162391594Y-111263357D02*
X162534452Y-111191928D01*
X162534452Y-111191928D02*
X162820166Y-111334785D01*
X162820166Y-111334785D02*
X162963023Y-111263357D01*
X162963023Y-111263357D02*
X163034452Y-111191928D01*
X164320166Y-112620500D02*
X164177309Y-112691928D01*
X164177309Y-112691928D02*
X163891595Y-112691928D01*
X163891595Y-112691928D02*
X163748737Y-112620500D01*
X163748737Y-112620500D02*
X163677309Y-112477642D01*
X163677309Y-112477642D02*
X163677309Y-111906214D01*
X163677309Y-111906214D02*
X163748737Y-111763357D01*
X163748737Y-111763357D02*
X163891595Y-111691928D01*
X163891595Y-111691928D02*
X164177309Y-111691928D01*
X164177309Y-111691928D02*
X164320166Y-111763357D01*
X164320166Y-111763357D02*
X164391595Y-111906214D01*
X164391595Y-111906214D02*
X164391595Y-112049071D01*
X164391595Y-112049071D02*
X163677309Y-112191928D01*
X165677309Y-112691928D02*
X165677309Y-111191928D01*
X165677309Y-112620500D02*
X165534451Y-112691928D01*
X165534451Y-112691928D02*
X165248737Y-112691928D01*
X165248737Y-112691928D02*
X165105880Y-112620500D01*
X165105880Y-112620500D02*
X165034451Y-112549071D01*
X165034451Y-112549071D02*
X164963023Y-112406214D01*
X164963023Y-112406214D02*
X164963023Y-111977642D01*
X164963023Y-111977642D02*
X165034451Y-111834785D01*
X165034451Y-111834785D02*
X165105880Y-111763357D01*
X165105880Y-111763357D02*
X165248737Y-111691928D01*
X165248737Y-111691928D02*
X165534451Y-111691928D01*
X165534451Y-111691928D02*
X165677309Y-111763357D01*
X167034452Y-112691928D02*
X167034452Y-111906214D01*
X167034452Y-111906214D02*
X166963023Y-111763357D01*
X166963023Y-111763357D02*
X166820166Y-111691928D01*
X166820166Y-111691928D02*
X166534452Y-111691928D01*
X166534452Y-111691928D02*
X166391594Y-111763357D01*
X167034452Y-112620500D02*
X166891594Y-112691928D01*
X166891594Y-112691928D02*
X166534452Y-112691928D01*
X166534452Y-112691928D02*
X166391594Y-112620500D01*
X166391594Y-112620500D02*
X166320166Y-112477642D01*
X166320166Y-112477642D02*
X166320166Y-112334785D01*
X166320166Y-112334785D02*
X166391594Y-112191928D01*
X166391594Y-112191928D02*
X166534452Y-112120500D01*
X166534452Y-112120500D02*
X166891594Y-112120500D01*
X166891594Y-112120500D02*
X167034452Y-112049071D01*
X168891594Y-112691928D02*
X168891594Y-111191928D01*
X168891594Y-111906214D02*
X169748737Y-111906214D01*
X169748737Y-112691928D02*
X169748737Y-111191928D01*
X171105881Y-111691928D02*
X171105881Y-112691928D01*
X170463023Y-111691928D02*
X170463023Y-112477642D01*
X170463023Y-112477642D02*
X170534452Y-112620500D01*
X170534452Y-112620500D02*
X170677309Y-112691928D01*
X170677309Y-112691928D02*
X170891595Y-112691928D01*
X170891595Y-112691928D02*
X171034452Y-112620500D01*
X171034452Y-112620500D02*
X171105881Y-112549071D01*
X172391595Y-112620500D02*
X172248738Y-112691928D01*
X172248738Y-112691928D02*
X171963024Y-112691928D01*
X171963024Y-112691928D02*
X171820166Y-112620500D01*
X171820166Y-112620500D02*
X171748738Y-112477642D01*
X171748738Y-112477642D02*
X171748738Y-111906214D01*
X171748738Y-111906214D02*
X171820166Y-111763357D01*
X171820166Y-111763357D02*
X171963024Y-111691928D01*
X171963024Y-111691928D02*
X172248738Y-111691928D01*
X172248738Y-111691928D02*
X172391595Y-111763357D01*
X172391595Y-111763357D02*
X172463024Y-111906214D01*
X172463024Y-111906214D02*
X172463024Y-112049071D01*
X172463024Y-112049071D02*
X171748738Y-112191928D01*
X173105880Y-112691928D02*
X173105880Y-111691928D01*
X173105880Y-111977642D02*
X173177309Y-111834785D01*
X173177309Y-111834785D02*
X173248738Y-111763357D01*
X173248738Y-111763357D02*
X173391595Y-111691928D01*
X173391595Y-111691928D02*
X173534452Y-111691928D01*
X173820166Y-111691928D02*
X174391594Y-111691928D01*
X174034451Y-111191928D02*
X174034451Y-112477642D01*
X174034451Y-112477642D02*
X174105880Y-112620500D01*
X174105880Y-112620500D02*
X174248737Y-112691928D01*
X174248737Y-112691928D02*
X174391594Y-112691928D01*
X175534452Y-112691928D02*
X175534452Y-111906214D01*
X175534452Y-111906214D02*
X175463023Y-111763357D01*
X175463023Y-111763357D02*
X175320166Y-111691928D01*
X175320166Y-111691928D02*
X175034452Y-111691928D01*
X175034452Y-111691928D02*
X174891594Y-111763357D01*
X175534452Y-112620500D02*
X175391594Y-112691928D01*
X175391594Y-112691928D02*
X175034452Y-112691928D01*
X175034452Y-112691928D02*
X174891594Y-112620500D01*
X174891594Y-112620500D02*
X174820166Y-112477642D01*
X174820166Y-112477642D02*
X174820166Y-112334785D01*
X174820166Y-112334785D02*
X174891594Y-112191928D01*
X174891594Y-112191928D02*
X175034452Y-112120500D01*
X175034452Y-112120500D02*
X175391594Y-112120500D01*
X175391594Y-112120500D02*
X175534452Y-112049071D01*
X178177309Y-112691928D02*
X177320166Y-112691928D01*
X177748737Y-112691928D02*
X177748737Y-111191928D01*
X177748737Y-111191928D02*
X177605880Y-111406214D01*
X177605880Y-111406214D02*
X177463023Y-111549071D01*
X177463023Y-111549071D02*
X177320166Y-111620500D01*
X178891594Y-112691928D02*
X179177308Y-112691928D01*
X179177308Y-112691928D02*
X179320165Y-112620500D01*
X179320165Y-112620500D02*
X179391594Y-112549071D01*
X179391594Y-112549071D02*
X179534451Y-112334785D01*
X179534451Y-112334785D02*
X179605880Y-112049071D01*
X179605880Y-112049071D02*
X179605880Y-111477642D01*
X179605880Y-111477642D02*
X179534451Y-111334785D01*
X179534451Y-111334785D02*
X179463023Y-111263357D01*
X179463023Y-111263357D02*
X179320165Y-111191928D01*
X179320165Y-111191928D02*
X179034451Y-111191928D01*
X179034451Y-111191928D02*
X178891594Y-111263357D01*
X178891594Y-111263357D02*
X178820165Y-111334785D01*
X178820165Y-111334785D02*
X178748737Y-111477642D01*
X178748737Y-111477642D02*
X178748737Y-111834785D01*
X178748737Y-111834785D02*
X178820165Y-111977642D01*
X178820165Y-111977642D02*
X178891594Y-112049071D01*
X178891594Y-112049071D02*
X179034451Y-112120500D01*
X179034451Y-112120500D02*
X179320165Y-112120500D01*
X179320165Y-112120500D02*
X179463023Y-112049071D01*
X179463023Y-112049071D02*
X179534451Y-111977642D01*
X179534451Y-111977642D02*
X179605880Y-111834785D01*
X180177308Y-111334785D02*
X180248736Y-111263357D01*
X180248736Y-111263357D02*
X180391594Y-111191928D01*
X180391594Y-111191928D02*
X180748736Y-111191928D01*
X180748736Y-111191928D02*
X180891594Y-111263357D01*
X180891594Y-111263357D02*
X180963022Y-111334785D01*
X180963022Y-111334785D02*
X181034451Y-111477642D01*
X181034451Y-111477642D02*
X181034451Y-111620500D01*
X181034451Y-111620500D02*
X180963022Y-111834785D01*
X180963022Y-111834785D02*
X180105879Y-112691928D01*
X180105879Y-112691928D02*
X181034451Y-112691928D01*
X181534450Y-111191928D02*
X182534450Y-111191928D01*
X182534450Y-111191928D02*
X181891593Y-112691928D01*
X182963021Y-111191928D02*
X183963021Y-111191928D01*
X183963021Y-111191928D02*
X183320164Y-112691928D01*
X185320164Y-112691928D02*
X184463021Y-112691928D01*
X184891592Y-112691928D02*
X184891592Y-111191928D01*
X184891592Y-111191928D02*
X184748735Y-111406214D01*
X184748735Y-111406214D02*
X184605878Y-111549071D01*
X184605878Y-111549071D02*
X184463021Y-111620500D01*
D10*
D11*
X91891598Y-108191928D02*
X91891598Y-109263357D01*
X91891598Y-109263357D02*
X91820169Y-109477642D01*
X91820169Y-109477642D02*
X91677312Y-109620500D01*
X91677312Y-109620500D02*
X91463026Y-109691928D01*
X91463026Y-109691928D02*
X91320169Y-109691928D01*
X92820169Y-109691928D02*
X92677312Y-109620500D01*
X92677312Y-109620500D02*
X92605883Y-109549071D01*
X92605883Y-109549071D02*
X92534455Y-109406214D01*
X92534455Y-109406214D02*
X92534455Y-108977642D01*
X92534455Y-108977642D02*
X92605883Y-108834785D01*
X92605883Y-108834785D02*
X92677312Y-108763357D01*
X92677312Y-108763357D02*
X92820169Y-108691928D01*
X92820169Y-108691928D02*
X93034455Y-108691928D01*
X93034455Y-108691928D02*
X93177312Y-108763357D01*
X93177312Y-108763357D02*
X93248741Y-108834785D01*
X93248741Y-108834785D02*
X93320169Y-108977642D01*
X93320169Y-108977642D02*
X93320169Y-109406214D01*
X93320169Y-109406214D02*
X93248741Y-109549071D01*
X93248741Y-109549071D02*
X93177312Y-109620500D01*
X93177312Y-109620500D02*
X93034455Y-109691928D01*
X93034455Y-109691928D02*
X92820169Y-109691928D01*
X93891598Y-109620500D02*
X94034455Y-109691928D01*
X94034455Y-109691928D02*
X94320169Y-109691928D01*
X94320169Y-109691928D02*
X94463026Y-109620500D01*
X94463026Y-109620500D02*
X94534455Y-109477642D01*
X94534455Y-109477642D02*
X94534455Y-109406214D01*
X94534455Y-109406214D02*
X94463026Y-109263357D01*
X94463026Y-109263357D02*
X94320169Y-109191928D01*
X94320169Y-109191928D02*
X94105884Y-109191928D01*
X94105884Y-109191928D02*
X93963026Y-109120500D01*
X93963026Y-109120500D02*
X93891598Y-108977642D01*
X93891598Y-108977642D02*
X93891598Y-108906214D01*
X93891598Y-108906214D02*
X93963026Y-108763357D01*
X93963026Y-108763357D02*
X94105884Y-108691928D01*
X94105884Y-108691928D02*
X94320169Y-108691928D01*
X94320169Y-108691928D02*
X94463026Y-108763357D01*
X95748741Y-109620500D02*
X95605884Y-109691928D01*
X95605884Y-109691928D02*
X95320170Y-109691928D01*
X95320170Y-109691928D02*
X95177312Y-109620500D01*
X95177312Y-109620500D02*
X95105884Y-109477642D01*
X95105884Y-109477642D02*
X95105884Y-108906214D01*
X95105884Y-108906214D02*
X95177312Y-108763357D01*
X95177312Y-108763357D02*
X95320170Y-108691928D01*
X95320170Y-108691928D02*
X95605884Y-108691928D01*
X95605884Y-108691928D02*
X95748741Y-108763357D01*
X95748741Y-108763357D02*
X95820170Y-108906214D01*
X95820170Y-108906214D02*
X95820170Y-109049071D01*
X95820170Y-109049071D02*
X95105884Y-109191928D01*
X95605884Y-108120500D02*
X95391598Y-108334785D01*
X98463026Y-109549071D02*
X98391598Y-109620500D01*
X98391598Y-109620500D02*
X98177312Y-109691928D01*
X98177312Y-109691928D02*
X98034455Y-109691928D01*
X98034455Y-109691928D02*
X97820169Y-109620500D01*
X97820169Y-109620500D02*
X97677312Y-109477642D01*
X97677312Y-109477642D02*
X97605883Y-109334785D01*
X97605883Y-109334785D02*
X97534455Y-109049071D01*
X97534455Y-109049071D02*
X97534455Y-108834785D01*
X97534455Y-108834785D02*
X97605883Y-108549071D01*
X97605883Y-108549071D02*
X97677312Y-108406214D01*
X97677312Y-108406214D02*
X97820169Y-108263357D01*
X97820169Y-108263357D02*
X98034455Y-108191928D01*
X98034455Y-108191928D02*
X98177312Y-108191928D01*
X98177312Y-108191928D02*
X98391598Y-108263357D01*
X98391598Y-108263357D02*
X98463026Y-108334785D01*
X99748741Y-109691928D02*
X99748741Y-108906214D01*
X99748741Y-108906214D02*
X99677312Y-108763357D01*
X99677312Y-108763357D02*
X99534455Y-108691928D01*
X99534455Y-108691928D02*
X99248741Y-108691928D01*
X99248741Y-108691928D02*
X99105883Y-108763357D01*
X99748741Y-109620500D02*
X99605883Y-109691928D01*
X99605883Y-109691928D02*
X99248741Y-109691928D01*
X99248741Y-109691928D02*
X99105883Y-109620500D01*
X99105883Y-109620500D02*
X99034455Y-109477642D01*
X99034455Y-109477642D02*
X99034455Y-109334785D01*
X99034455Y-109334785D02*
X99105883Y-109191928D01*
X99105883Y-109191928D02*
X99248741Y-109120500D01*
X99248741Y-109120500D02*
X99605883Y-109120500D01*
X99605883Y-109120500D02*
X99748741Y-109049071D01*
X100463026Y-109691928D02*
X100463026Y-108691928D01*
X100463026Y-108977642D02*
X100534455Y-108834785D01*
X100534455Y-108834785D02*
X100605884Y-108763357D01*
X100605884Y-108763357D02*
X100748741Y-108691928D01*
X100748741Y-108691928D02*
X100891598Y-108691928D01*
X101605883Y-109691928D02*
X101463026Y-109620500D01*
X101463026Y-109620500D02*
X101391597Y-109477642D01*
X101391597Y-109477642D02*
X101391597Y-108191928D01*
X102391597Y-109691928D02*
X102248740Y-109620500D01*
X102248740Y-109620500D02*
X102177311Y-109549071D01*
X102177311Y-109549071D02*
X102105883Y-109406214D01*
X102105883Y-109406214D02*
X102105883Y-108977642D01*
X102105883Y-108977642D02*
X102177311Y-108834785D01*
X102177311Y-108834785D02*
X102248740Y-108763357D01*
X102248740Y-108763357D02*
X102391597Y-108691928D01*
X102391597Y-108691928D02*
X102605883Y-108691928D01*
X102605883Y-108691928D02*
X102748740Y-108763357D01*
X102748740Y-108763357D02*
X102820169Y-108834785D01*
X102820169Y-108834785D02*
X102891597Y-108977642D01*
X102891597Y-108977642D02*
X102891597Y-109406214D01*
X102891597Y-109406214D02*
X102820169Y-109549071D01*
X102820169Y-109549071D02*
X102748740Y-109620500D01*
X102748740Y-109620500D02*
X102605883Y-109691928D01*
X102605883Y-109691928D02*
X102391597Y-109691928D01*
X103463026Y-109620500D02*
X103605883Y-109691928D01*
X103605883Y-109691928D02*
X103891597Y-109691928D01*
X103891597Y-109691928D02*
X104034454Y-109620500D01*
X104034454Y-109620500D02*
X104105883Y-109477642D01*
X104105883Y-109477642D02*
X104105883Y-109406214D01*
X104105883Y-109406214D02*
X104034454Y-109263357D01*
X104034454Y-109263357D02*
X103891597Y-109191928D01*
X103891597Y-109191928D02*
X103677312Y-109191928D01*
X103677312Y-109191928D02*
X103534454Y-109120500D01*
X103534454Y-109120500D02*
X103463026Y-108977642D01*
X103463026Y-108977642D02*
X103463026Y-108906214D01*
X103463026Y-108906214D02*
X103534454Y-108763357D01*
X103534454Y-108763357D02*
X103677312Y-108691928D01*
X103677312Y-108691928D02*
X103891597Y-108691928D01*
X103891597Y-108691928D02*
X104034454Y-108763357D01*
X105820169Y-109263357D02*
X106534455Y-109263357D01*
X105677312Y-109691928D02*
X106177312Y-108191928D01*
X106177312Y-108191928D02*
X106677312Y-109691928D01*
X107177311Y-109691928D02*
X107177311Y-108691928D01*
X107177311Y-108977642D02*
X107248740Y-108834785D01*
X107248740Y-108834785D02*
X107320169Y-108763357D01*
X107320169Y-108763357D02*
X107463026Y-108691928D01*
X107463026Y-108691928D02*
X107605883Y-108691928D01*
X108105882Y-109691928D02*
X108105882Y-108691928D01*
X108105882Y-108977642D02*
X108177311Y-108834785D01*
X108177311Y-108834785D02*
X108248740Y-108763357D01*
X108248740Y-108763357D02*
X108391597Y-108691928D01*
X108391597Y-108691928D02*
X108534454Y-108691928D01*
X109034453Y-109691928D02*
X109034453Y-108691928D01*
X109034453Y-108191928D02*
X108963025Y-108263357D01*
X108963025Y-108263357D02*
X109034453Y-108334785D01*
X109034453Y-108334785D02*
X109105882Y-108263357D01*
X109105882Y-108263357D02*
X109034453Y-108191928D01*
X109034453Y-108191928D02*
X109034453Y-108334785D01*
X110391597Y-109691928D02*
X110391597Y-108906214D01*
X110391597Y-108906214D02*
X110320168Y-108763357D01*
X110320168Y-108763357D02*
X110177311Y-108691928D01*
X110177311Y-108691928D02*
X109891597Y-108691928D01*
X109891597Y-108691928D02*
X109748739Y-108763357D01*
X110391597Y-109620500D02*
X110248739Y-109691928D01*
X110248739Y-109691928D02*
X109891597Y-109691928D01*
X109891597Y-109691928D02*
X109748739Y-109620500D01*
X109748739Y-109620500D02*
X109677311Y-109477642D01*
X109677311Y-109477642D02*
X109677311Y-109334785D01*
X109677311Y-109334785D02*
X109748739Y-109191928D01*
X109748739Y-109191928D02*
X109891597Y-109120500D01*
X109891597Y-109120500D02*
X110248739Y-109120500D01*
X110248739Y-109120500D02*
X110391597Y-109049071D01*
X111748740Y-108691928D02*
X111748740Y-109906214D01*
X111748740Y-109906214D02*
X111677311Y-110049071D01*
X111677311Y-110049071D02*
X111605882Y-110120500D01*
X111605882Y-110120500D02*
X111463025Y-110191928D01*
X111463025Y-110191928D02*
X111248740Y-110191928D01*
X111248740Y-110191928D02*
X111105882Y-110120500D01*
X111748740Y-109620500D02*
X111605882Y-109691928D01*
X111605882Y-109691928D02*
X111320168Y-109691928D01*
X111320168Y-109691928D02*
X111177311Y-109620500D01*
X111177311Y-109620500D02*
X111105882Y-109549071D01*
X111105882Y-109549071D02*
X111034454Y-109406214D01*
X111034454Y-109406214D02*
X111034454Y-108977642D01*
X111034454Y-108977642D02*
X111105882Y-108834785D01*
X111105882Y-108834785D02*
X111177311Y-108763357D01*
X111177311Y-108763357D02*
X111320168Y-108691928D01*
X111320168Y-108691928D02*
X111605882Y-108691928D01*
X111605882Y-108691928D02*
X111748740Y-108763357D01*
X113105883Y-109691928D02*
X113105883Y-108906214D01*
X113105883Y-108906214D02*
X113034454Y-108763357D01*
X113034454Y-108763357D02*
X112891597Y-108691928D01*
X112891597Y-108691928D02*
X112605883Y-108691928D01*
X112605883Y-108691928D02*
X112463025Y-108763357D01*
X113105883Y-109620500D02*
X112963025Y-109691928D01*
X112963025Y-109691928D02*
X112605883Y-109691928D01*
X112605883Y-109691928D02*
X112463025Y-109620500D01*
X112463025Y-109620500D02*
X112391597Y-109477642D01*
X112391597Y-109477642D02*
X112391597Y-109334785D01*
X112391597Y-109334785D02*
X112463025Y-109191928D01*
X112463025Y-109191928D02*
X112605883Y-109120500D01*
X112605883Y-109120500D02*
X112963025Y-109120500D01*
X112963025Y-109120500D02*
X113105883Y-109049071D01*
X115677311Y-109691928D02*
X114963025Y-109691928D01*
X114963025Y-109691928D02*
X114963025Y-108191928D01*
X116391597Y-109691928D02*
X116248740Y-109620500D01*
X116248740Y-109620500D02*
X116177311Y-109549071D01*
X116177311Y-109549071D02*
X116105883Y-109406214D01*
X116105883Y-109406214D02*
X116105883Y-108977642D01*
X116105883Y-108977642D02*
X116177311Y-108834785D01*
X116177311Y-108834785D02*
X116248740Y-108763357D01*
X116248740Y-108763357D02*
X116391597Y-108691928D01*
X116391597Y-108691928D02*
X116605883Y-108691928D01*
X116605883Y-108691928D02*
X116748740Y-108763357D01*
X116748740Y-108763357D02*
X116820169Y-108834785D01*
X116820169Y-108834785D02*
X116891597Y-108977642D01*
X116891597Y-108977642D02*
X116891597Y-109406214D01*
X116891597Y-109406214D02*
X116820169Y-109549071D01*
X116820169Y-109549071D02*
X116748740Y-109620500D01*
X116748740Y-109620500D02*
X116605883Y-109691928D01*
X116605883Y-109691928D02*
X116391597Y-109691928D01*
X117534454Y-108691928D02*
X117534454Y-110191928D01*
X117534454Y-108763357D02*
X117677312Y-108691928D01*
X117677312Y-108691928D02*
X117963026Y-108691928D01*
X117963026Y-108691928D02*
X118105883Y-108763357D01*
X118105883Y-108763357D02*
X118177312Y-108834785D01*
X118177312Y-108834785D02*
X118248740Y-108977642D01*
X118248740Y-108977642D02*
X118248740Y-109406214D01*
X118248740Y-109406214D02*
X118177312Y-109549071D01*
X118177312Y-109549071D02*
X118105883Y-109620500D01*
X118105883Y-109620500D02*
X117963026Y-109691928D01*
X117963026Y-109691928D02*
X117677312Y-109691928D01*
X117677312Y-109691928D02*
X117534454Y-109620500D01*
X119463026Y-109620500D02*
X119320169Y-109691928D01*
X119320169Y-109691928D02*
X119034455Y-109691928D01*
X119034455Y-109691928D02*
X118891597Y-109620500D01*
X118891597Y-109620500D02*
X118820169Y-109477642D01*
X118820169Y-109477642D02*
X118820169Y-108906214D01*
X118820169Y-108906214D02*
X118891597Y-108763357D01*
X118891597Y-108763357D02*
X119034455Y-108691928D01*
X119034455Y-108691928D02*
X119320169Y-108691928D01*
X119320169Y-108691928D02*
X119463026Y-108763357D01*
X119463026Y-108763357D02*
X119534455Y-108906214D01*
X119534455Y-108906214D02*
X119534455Y-109049071D01*
X119534455Y-109049071D02*
X118820169Y-109191928D01*
X120034454Y-108691928D02*
X120820169Y-108691928D01*
X120820169Y-108691928D02*
X120034454Y-109691928D01*
X120034454Y-109691928D02*
X120820169Y-109691928D01*
X123320169Y-109691928D02*
X122463026Y-109691928D01*
X122891597Y-109691928D02*
X122891597Y-108191928D01*
X122891597Y-108191928D02*
X122748740Y-108406214D01*
X122748740Y-108406214D02*
X122605883Y-108549071D01*
X122605883Y-108549071D02*
X122463026Y-108620500D01*
X124677311Y-108191928D02*
X123963025Y-108191928D01*
X123963025Y-108191928D02*
X123891597Y-108906214D01*
X123891597Y-108906214D02*
X123963025Y-108834785D01*
X123963025Y-108834785D02*
X124105883Y-108763357D01*
X124105883Y-108763357D02*
X124463025Y-108763357D01*
X124463025Y-108763357D02*
X124605883Y-108834785D01*
X124605883Y-108834785D02*
X124677311Y-108906214D01*
X124677311Y-108906214D02*
X124748740Y-109049071D01*
X124748740Y-109049071D02*
X124748740Y-109406214D01*
X124748740Y-109406214D02*
X124677311Y-109549071D01*
X124677311Y-109549071D02*
X124605883Y-109620500D01*
X124605883Y-109620500D02*
X124463025Y-109691928D01*
X124463025Y-109691928D02*
X124105883Y-109691928D01*
X124105883Y-109691928D02*
X123963025Y-109620500D01*
X123963025Y-109620500D02*
X123891597Y-109549071D01*
X125248739Y-108191928D02*
X126248739Y-108191928D01*
X126248739Y-108191928D02*
X125605882Y-109691928D01*
X127534453Y-108191928D02*
X126820167Y-108191928D01*
X126820167Y-108191928D02*
X126748739Y-108906214D01*
X126748739Y-108906214D02*
X126820167Y-108834785D01*
X126820167Y-108834785D02*
X126963025Y-108763357D01*
X126963025Y-108763357D02*
X127320167Y-108763357D01*
X127320167Y-108763357D02*
X127463025Y-108834785D01*
X127463025Y-108834785D02*
X127534453Y-108906214D01*
X127534453Y-108906214D02*
X127605882Y-109049071D01*
X127605882Y-109049071D02*
X127605882Y-109406214D01*
X127605882Y-109406214D02*
X127534453Y-109549071D01*
X127534453Y-109549071D02*
X127463025Y-109620500D01*
X127463025Y-109620500D02*
X127320167Y-109691928D01*
X127320167Y-109691928D02*
X126963025Y-109691928D01*
X126963025Y-109691928D02*
X126820167Y-109620500D01*
X126820167Y-109620500D02*
X126748739Y-109549071D01*
X128963024Y-108191928D02*
X128248738Y-108191928D01*
X128248738Y-108191928D02*
X128177310Y-108906214D01*
X128177310Y-108906214D02*
X128248738Y-108834785D01*
X128248738Y-108834785D02*
X128391596Y-108763357D01*
X128391596Y-108763357D02*
X128748738Y-108763357D01*
X128748738Y-108763357D02*
X128891596Y-108834785D01*
X128891596Y-108834785D02*
X128963024Y-108906214D01*
X128963024Y-108906214D02*
X129034453Y-109049071D01*
X129034453Y-109049071D02*
X129034453Y-109406214D01*
X129034453Y-109406214D02*
X128963024Y-109549071D01*
X128963024Y-109549071D02*
X128891596Y-109620500D01*
X128891596Y-109620500D02*
X128748738Y-109691928D01*
X128748738Y-109691928D02*
X128391596Y-109691928D01*
X128391596Y-109691928D02*
X128248738Y-109620500D01*
X128248738Y-109620500D02*
X128177310Y-109549071D01*
X129891595Y-108834785D02*
X129748738Y-108763357D01*
X129748738Y-108763357D02*
X129677309Y-108691928D01*
X129677309Y-108691928D02*
X129605881Y-108549071D01*
X129605881Y-108549071D02*
X129605881Y-108477642D01*
X129605881Y-108477642D02*
X129677309Y-108334785D01*
X129677309Y-108334785D02*
X129748738Y-108263357D01*
X129748738Y-108263357D02*
X129891595Y-108191928D01*
X129891595Y-108191928D02*
X130177309Y-108191928D01*
X130177309Y-108191928D02*
X130320167Y-108263357D01*
X130320167Y-108263357D02*
X130391595Y-108334785D01*
X130391595Y-108334785D02*
X130463024Y-108477642D01*
X130463024Y-108477642D02*
X130463024Y-108549071D01*
X130463024Y-108549071D02*
X130391595Y-108691928D01*
X130391595Y-108691928D02*
X130320167Y-108763357D01*
X130320167Y-108763357D02*
X130177309Y-108834785D01*
X130177309Y-108834785D02*
X129891595Y-108834785D01*
X129891595Y-108834785D02*
X129748738Y-108906214D01*
X129748738Y-108906214D02*
X129677309Y-108977642D01*
X129677309Y-108977642D02*
X129605881Y-109120500D01*
X129605881Y-109120500D02*
X129605881Y-109406214D01*
X129605881Y-109406214D02*
X129677309Y-109549071D01*
X129677309Y-109549071D02*
X129748738Y-109620500D01*
X129748738Y-109620500D02*
X129891595Y-109691928D01*
X129891595Y-109691928D02*
X130177309Y-109691928D01*
X130177309Y-109691928D02*
X130320167Y-109620500D01*
X130320167Y-109620500D02*
X130391595Y-109549071D01*
X130391595Y-109549071D02*
X130463024Y-109406214D01*
X130463024Y-109406214D02*
X130463024Y-109120500D01*
X130463024Y-109120500D02*
X130391595Y-108977642D01*
X130391595Y-108977642D02*
X130320167Y-108906214D01*
X130320167Y-108906214D02*
X130177309Y-108834785D01*
X131177309Y-109620500D02*
X131177309Y-109691928D01*
X131177309Y-109691928D02*
X131105880Y-109834785D01*
X131105880Y-109834785D02*
X131034452Y-109906214D01*
X132891595Y-109263357D02*
X133605881Y-109263357D01*
X132748738Y-109691928D02*
X133248738Y-108191928D01*
X133248738Y-108191928D02*
X133748738Y-109691928D01*
X134891595Y-109691928D02*
X134891595Y-108191928D01*
X134891595Y-109620500D02*
X134748737Y-109691928D01*
X134748737Y-109691928D02*
X134463023Y-109691928D01*
X134463023Y-109691928D02*
X134320166Y-109620500D01*
X134320166Y-109620500D02*
X134248737Y-109549071D01*
X134248737Y-109549071D02*
X134177309Y-109406214D01*
X134177309Y-109406214D02*
X134177309Y-108977642D01*
X134177309Y-108977642D02*
X134248737Y-108834785D01*
X134248737Y-108834785D02*
X134320166Y-108763357D01*
X134320166Y-108763357D02*
X134463023Y-108691928D01*
X134463023Y-108691928D02*
X134748737Y-108691928D01*
X134748737Y-108691928D02*
X134891595Y-108763357D01*
X136248738Y-109691928D02*
X136248738Y-108906214D01*
X136248738Y-108906214D02*
X136177309Y-108763357D01*
X136177309Y-108763357D02*
X136034452Y-108691928D01*
X136034452Y-108691928D02*
X135748738Y-108691928D01*
X135748738Y-108691928D02*
X135605880Y-108763357D01*
X136248738Y-109620500D02*
X136105880Y-109691928D01*
X136105880Y-109691928D02*
X135748738Y-109691928D01*
X135748738Y-109691928D02*
X135605880Y-109620500D01*
X135605880Y-109620500D02*
X135534452Y-109477642D01*
X135534452Y-109477642D02*
X135534452Y-109334785D01*
X135534452Y-109334785D02*
X135605880Y-109191928D01*
X135605880Y-109191928D02*
X135748738Y-109120500D01*
X135748738Y-109120500D02*
X136105880Y-109120500D01*
X136105880Y-109120500D02*
X136248738Y-109049071D01*
X136963023Y-108691928D02*
X136963023Y-109691928D01*
X136963023Y-108834785D02*
X137034452Y-108763357D01*
X137034452Y-108763357D02*
X137177309Y-108691928D01*
X137177309Y-108691928D02*
X137391595Y-108691928D01*
X137391595Y-108691928D02*
X137534452Y-108763357D01*
X137534452Y-108763357D02*
X137605881Y-108906214D01*
X137605881Y-108906214D02*
X137605881Y-109691928D01*
X140320166Y-109691928D02*
X139820166Y-108977642D01*
X139463023Y-109691928D02*
X139463023Y-108191928D01*
X139463023Y-108191928D02*
X140034452Y-108191928D01*
X140034452Y-108191928D02*
X140177309Y-108263357D01*
X140177309Y-108263357D02*
X140248738Y-108334785D01*
X140248738Y-108334785D02*
X140320166Y-108477642D01*
X140320166Y-108477642D02*
X140320166Y-108691928D01*
X140320166Y-108691928D02*
X140248738Y-108834785D01*
X140248738Y-108834785D02*
X140177309Y-108906214D01*
X140177309Y-108906214D02*
X140034452Y-108977642D01*
X140034452Y-108977642D02*
X139463023Y-108977642D01*
X141177309Y-109691928D02*
X141034452Y-109620500D01*
X141034452Y-109620500D02*
X140963023Y-109549071D01*
X140963023Y-109549071D02*
X140891595Y-109406214D01*
X140891595Y-109406214D02*
X140891595Y-108977642D01*
X140891595Y-108977642D02*
X140963023Y-108834785D01*
X140963023Y-108834785D02*
X141034452Y-108763357D01*
X141034452Y-108763357D02*
X141177309Y-108691928D01*
X141177309Y-108691928D02*
X141391595Y-108691928D01*
X141391595Y-108691928D02*
X141534452Y-108763357D01*
X141534452Y-108763357D02*
X141605881Y-108834785D01*
X141605881Y-108834785D02*
X141677309Y-108977642D01*
X141677309Y-108977642D02*
X141677309Y-109406214D01*
X141677309Y-109406214D02*
X141605881Y-109549071D01*
X141605881Y-109549071D02*
X141534452Y-109620500D01*
X141534452Y-109620500D02*
X141391595Y-109691928D01*
X141391595Y-109691928D02*
X141177309Y-109691928D01*
X142963024Y-109691928D02*
X142963024Y-108191928D01*
X142963024Y-109620500D02*
X142820166Y-109691928D01*
X142820166Y-109691928D02*
X142534452Y-109691928D01*
X142534452Y-109691928D02*
X142391595Y-109620500D01*
X142391595Y-109620500D02*
X142320166Y-109549071D01*
X142320166Y-109549071D02*
X142248738Y-109406214D01*
X142248738Y-109406214D02*
X142248738Y-108977642D01*
X142248738Y-108977642D02*
X142320166Y-108834785D01*
X142320166Y-108834785D02*
X142391595Y-108763357D01*
X142391595Y-108763357D02*
X142534452Y-108691928D01*
X142534452Y-108691928D02*
X142820166Y-108691928D01*
X142820166Y-108691928D02*
X142963024Y-108763357D01*
X143677309Y-109691928D02*
X143677309Y-108691928D01*
X143677309Y-108977642D02*
X143748738Y-108834785D01*
X143748738Y-108834785D02*
X143820167Y-108763357D01*
X143820167Y-108763357D02*
X143963024Y-108691928D01*
X143963024Y-108691928D02*
X144105881Y-108691928D01*
X144605880Y-109691928D02*
X144605880Y-108691928D01*
X144605880Y-108191928D02*
X144534452Y-108263357D01*
X144534452Y-108263357D02*
X144605880Y-108334785D01*
X144605880Y-108334785D02*
X144677309Y-108263357D01*
X144677309Y-108263357D02*
X144605880Y-108191928D01*
X144605880Y-108191928D02*
X144605880Y-108334785D01*
X145963024Y-108691928D02*
X145963024Y-109906214D01*
X145963024Y-109906214D02*
X145891595Y-110049071D01*
X145891595Y-110049071D02*
X145820166Y-110120500D01*
X145820166Y-110120500D02*
X145677309Y-110191928D01*
X145677309Y-110191928D02*
X145463024Y-110191928D01*
X145463024Y-110191928D02*
X145320166Y-110120500D01*
X145963024Y-109620500D02*
X145820166Y-109691928D01*
X145820166Y-109691928D02*
X145534452Y-109691928D01*
X145534452Y-109691928D02*
X145391595Y-109620500D01*
X145391595Y-109620500D02*
X145320166Y-109549071D01*
X145320166Y-109549071D02*
X145248738Y-109406214D01*
X145248738Y-109406214D02*
X145248738Y-108977642D01*
X145248738Y-108977642D02*
X145320166Y-108834785D01*
X145320166Y-108834785D02*
X145391595Y-108763357D01*
X145391595Y-108763357D02*
X145534452Y-108691928D01*
X145534452Y-108691928D02*
X145820166Y-108691928D01*
X145820166Y-108691928D02*
X145963024Y-108763357D01*
X146891595Y-109691928D02*
X146748738Y-109620500D01*
X146748738Y-109620500D02*
X146677309Y-109549071D01*
X146677309Y-109549071D02*
X146605881Y-109406214D01*
X146605881Y-109406214D02*
X146605881Y-108977642D01*
X146605881Y-108977642D02*
X146677309Y-108834785D01*
X146677309Y-108834785D02*
X146748738Y-108763357D01*
X146748738Y-108763357D02*
X146891595Y-108691928D01*
X146891595Y-108691928D02*
X147105881Y-108691928D01*
X147105881Y-108691928D02*
X147248738Y-108763357D01*
X147248738Y-108763357D02*
X147320167Y-108834785D01*
X147320167Y-108834785D02*
X147391595Y-108977642D01*
X147391595Y-108977642D02*
X147391595Y-109406214D01*
X147391595Y-109406214D02*
X147320167Y-109549071D01*
X147320167Y-109549071D02*
X147248738Y-109620500D01*
X147248738Y-109620500D02*
X147105881Y-109691928D01*
X147105881Y-109691928D02*
X146891595Y-109691928D01*
X149177309Y-109691928D02*
X149177309Y-108191928D01*
X149177309Y-108191928D02*
X149534452Y-108191928D01*
X149534452Y-108191928D02*
X149748738Y-108263357D01*
X149748738Y-108263357D02*
X149891595Y-108406214D01*
X149891595Y-108406214D02*
X149963024Y-108549071D01*
X149963024Y-108549071D02*
X150034452Y-108834785D01*
X150034452Y-108834785D02*
X150034452Y-109049071D01*
X150034452Y-109049071D02*
X149963024Y-109334785D01*
X149963024Y-109334785D02*
X149891595Y-109477642D01*
X149891595Y-109477642D02*
X149748738Y-109620500D01*
X149748738Y-109620500D02*
X149534452Y-109691928D01*
X149534452Y-109691928D02*
X149177309Y-109691928D01*
X151248738Y-109620500D02*
X151105881Y-109691928D01*
X151105881Y-109691928D02*
X150820167Y-109691928D01*
X150820167Y-109691928D02*
X150677309Y-109620500D01*
X150677309Y-109620500D02*
X150605881Y-109477642D01*
X150605881Y-109477642D02*
X150605881Y-108906214D01*
X150605881Y-108906214D02*
X150677309Y-108763357D01*
X150677309Y-108763357D02*
X150820167Y-108691928D01*
X150820167Y-108691928D02*
X151105881Y-108691928D01*
X151105881Y-108691928D02*
X151248738Y-108763357D01*
X151248738Y-108763357D02*
X151320167Y-108906214D01*
X151320167Y-108906214D02*
X151320167Y-109049071D01*
X151320167Y-109049071D02*
X150605881Y-109191928D01*
X153820166Y-109691928D02*
X153105880Y-109691928D01*
X153105880Y-109691928D02*
X153105880Y-108191928D01*
X154963024Y-109691928D02*
X154963024Y-108906214D01*
X154963024Y-108906214D02*
X154891595Y-108763357D01*
X154891595Y-108763357D02*
X154748738Y-108691928D01*
X154748738Y-108691928D02*
X154463024Y-108691928D01*
X154463024Y-108691928D02*
X154320166Y-108763357D01*
X154963024Y-109620500D02*
X154820166Y-109691928D01*
X154820166Y-109691928D02*
X154463024Y-109691928D01*
X154463024Y-109691928D02*
X154320166Y-109620500D01*
X154320166Y-109620500D02*
X154248738Y-109477642D01*
X154248738Y-109477642D02*
X154248738Y-109334785D01*
X154248738Y-109334785D02*
X154320166Y-109191928D01*
X154320166Y-109191928D02*
X154463024Y-109120500D01*
X154463024Y-109120500D02*
X154820166Y-109120500D01*
X154820166Y-109120500D02*
X154963024Y-109049071D01*
X157677309Y-109549071D02*
X157605881Y-109620500D01*
X157605881Y-109620500D02*
X157391595Y-109691928D01*
X157391595Y-109691928D02*
X157248738Y-109691928D01*
X157248738Y-109691928D02*
X157034452Y-109620500D01*
X157034452Y-109620500D02*
X156891595Y-109477642D01*
X156891595Y-109477642D02*
X156820166Y-109334785D01*
X156820166Y-109334785D02*
X156748738Y-109049071D01*
X156748738Y-109049071D02*
X156748738Y-108834785D01*
X156748738Y-108834785D02*
X156820166Y-108549071D01*
X156820166Y-108549071D02*
X156891595Y-108406214D01*
X156891595Y-108406214D02*
X157034452Y-108263357D01*
X157034452Y-108263357D02*
X157248738Y-108191928D01*
X157248738Y-108191928D02*
X157391595Y-108191928D01*
X157391595Y-108191928D02*
X157605881Y-108263357D01*
X157605881Y-108263357D02*
X157677309Y-108334785D01*
X158320166Y-109691928D02*
X158320166Y-108691928D01*
X158320166Y-108977642D02*
X158391595Y-108834785D01*
X158391595Y-108834785D02*
X158463024Y-108763357D01*
X158463024Y-108763357D02*
X158605881Y-108691928D01*
X158605881Y-108691928D02*
X158748738Y-108691928D01*
X159891595Y-108691928D02*
X159891595Y-109691928D01*
X159248737Y-108691928D02*
X159248737Y-109477642D01*
X159248737Y-109477642D02*
X159320166Y-109620500D01*
X159320166Y-109620500D02*
X159463023Y-109691928D01*
X159463023Y-109691928D02*
X159677309Y-109691928D01*
X159677309Y-109691928D02*
X159820166Y-109620500D01*
X159820166Y-109620500D02*
X159891595Y-109549071D01*
X160463023Y-108691928D02*
X161248738Y-108691928D01*
X161248738Y-108691928D02*
X160463023Y-109691928D01*
X160463023Y-109691928D02*
X161248738Y-109691928D01*
X163248738Y-108191928D02*
X163534452Y-108191928D01*
X163534452Y-108191928D02*
X163677309Y-108263357D01*
X163677309Y-108263357D02*
X163820166Y-108406214D01*
X163820166Y-108406214D02*
X163891595Y-108691928D01*
X163891595Y-108691928D02*
X163891595Y-109191928D01*
X163891595Y-109191928D02*
X163820166Y-109477642D01*
X163820166Y-109477642D02*
X163677309Y-109620500D01*
X163677309Y-109620500D02*
X163534452Y-109691928D01*
X163534452Y-109691928D02*
X163248738Y-109691928D01*
X163248738Y-109691928D02*
X163105881Y-109620500D01*
X163105881Y-109620500D02*
X162963023Y-109477642D01*
X162963023Y-109477642D02*
X162891595Y-109191928D01*
X162891595Y-109191928D02*
X162891595Y-108691928D01*
X162891595Y-108691928D02*
X162963023Y-108406214D01*
X162963023Y-108406214D02*
X163105881Y-108263357D01*
X163105881Y-108263357D02*
X163248738Y-108191928D01*
X164463024Y-109620500D02*
X164605881Y-109691928D01*
X164605881Y-109691928D02*
X164891595Y-109691928D01*
X164891595Y-109691928D02*
X165034452Y-109620500D01*
X165034452Y-109620500D02*
X165105881Y-109477642D01*
X165105881Y-109477642D02*
X165105881Y-109406214D01*
X165105881Y-109406214D02*
X165034452Y-109263357D01*
X165034452Y-109263357D02*
X164891595Y-109191928D01*
X164891595Y-109191928D02*
X164677310Y-109191928D01*
X164677310Y-109191928D02*
X164534452Y-109120500D01*
X164534452Y-109120500D02*
X164463024Y-108977642D01*
X164463024Y-108977642D02*
X164463024Y-108906214D01*
X164463024Y-108906214D02*
X164534452Y-108763357D01*
X164534452Y-108763357D02*
X164677310Y-108691928D01*
X164677310Y-108691928D02*
X164891595Y-108691928D01*
X164891595Y-108691928D02*
X165034452Y-108763357D01*
X165963024Y-109691928D02*
X165820167Y-109620500D01*
X165820167Y-109620500D02*
X165748738Y-109549071D01*
X165748738Y-109549071D02*
X165677310Y-109406214D01*
X165677310Y-109406214D02*
X165677310Y-108977642D01*
X165677310Y-108977642D02*
X165748738Y-108834785D01*
X165748738Y-108834785D02*
X165820167Y-108763357D01*
X165820167Y-108763357D02*
X165963024Y-108691928D01*
X165963024Y-108691928D02*
X166177310Y-108691928D01*
X166177310Y-108691928D02*
X166320167Y-108763357D01*
X166320167Y-108763357D02*
X166391596Y-108834785D01*
X166391596Y-108834785D02*
X166463024Y-108977642D01*
X166463024Y-108977642D02*
X166463024Y-109406214D01*
X166463024Y-109406214D02*
X166391596Y-109549071D01*
X166391596Y-109549071D02*
X166320167Y-109620500D01*
X166320167Y-109620500D02*
X166177310Y-109691928D01*
X166177310Y-109691928D02*
X165963024Y-109691928D01*
X167105881Y-109691928D02*
X167105881Y-108691928D01*
X167105881Y-108977642D02*
X167177310Y-108834785D01*
X167177310Y-108834785D02*
X167248739Y-108763357D01*
X167248739Y-108763357D02*
X167391596Y-108691928D01*
X167391596Y-108691928D02*
X167534453Y-108691928D01*
X168034452Y-109691928D02*
X168034452Y-108691928D01*
X168034452Y-108191928D02*
X167963024Y-108263357D01*
X167963024Y-108263357D02*
X168034452Y-108334785D01*
X168034452Y-108334785D02*
X168105881Y-108263357D01*
X168105881Y-108263357D02*
X168034452Y-108191928D01*
X168034452Y-108191928D02*
X168034452Y-108334785D01*
X168963024Y-109691928D02*
X168820167Y-109620500D01*
X168820167Y-109620500D02*
X168748738Y-109549071D01*
X168748738Y-109549071D02*
X168677310Y-109406214D01*
X168677310Y-109406214D02*
X168677310Y-108977642D01*
X168677310Y-108977642D02*
X168748738Y-108834785D01*
X168748738Y-108834785D02*
X168820167Y-108763357D01*
X168820167Y-108763357D02*
X168963024Y-108691928D01*
X168963024Y-108691928D02*
X169177310Y-108691928D01*
X169177310Y-108691928D02*
X169320167Y-108763357D01*
X169320167Y-108763357D02*
X169391596Y-108834785D01*
X169391596Y-108834785D02*
X169463024Y-108977642D01*
X169463024Y-108977642D02*
X169463024Y-109406214D01*
X169463024Y-109406214D02*
X169391596Y-109549071D01*
X169391596Y-109549071D02*
X169320167Y-109620500D01*
X169320167Y-109620500D02*
X169177310Y-109691928D01*
X169177310Y-109691928D02*
X168963024Y-109691928D01*
X172034453Y-109691928D02*
X171177310Y-109691928D01*
X171605881Y-109691928D02*
X171605881Y-108191928D01*
X171605881Y-108191928D02*
X171463024Y-108406214D01*
X171463024Y-108406214D02*
X171320167Y-108549071D01*
X171320167Y-108549071D02*
X171177310Y-108620500D01*
X172748738Y-109691928D02*
X173034452Y-109691928D01*
X173034452Y-109691928D02*
X173177309Y-109620500D01*
X173177309Y-109620500D02*
X173248738Y-109549071D01*
X173248738Y-109549071D02*
X173391595Y-109334785D01*
X173391595Y-109334785D02*
X173463024Y-109049071D01*
X173463024Y-109049071D02*
X173463024Y-108477642D01*
X173463024Y-108477642D02*
X173391595Y-108334785D01*
X173391595Y-108334785D02*
X173320167Y-108263357D01*
X173320167Y-108263357D02*
X173177309Y-108191928D01*
X173177309Y-108191928D02*
X172891595Y-108191928D01*
X172891595Y-108191928D02*
X172748738Y-108263357D01*
X172748738Y-108263357D02*
X172677309Y-108334785D01*
X172677309Y-108334785D02*
X172605881Y-108477642D01*
X172605881Y-108477642D02*
X172605881Y-108834785D01*
X172605881Y-108834785D02*
X172677309Y-108977642D01*
X172677309Y-108977642D02*
X172748738Y-109049071D01*
X172748738Y-109049071D02*
X172891595Y-109120500D01*
X172891595Y-109120500D02*
X173177309Y-109120500D01*
X173177309Y-109120500D02*
X173320167Y-109049071D01*
X173320167Y-109049071D02*
X173391595Y-108977642D01*
X173391595Y-108977642D02*
X173463024Y-108834785D01*
X174034452Y-108334785D02*
X174105880Y-108263357D01*
X174105880Y-108263357D02*
X174248738Y-108191928D01*
X174248738Y-108191928D02*
X174605880Y-108191928D01*
X174605880Y-108191928D02*
X174748738Y-108263357D01*
X174748738Y-108263357D02*
X174820166Y-108334785D01*
X174820166Y-108334785D02*
X174891595Y-108477642D01*
X174891595Y-108477642D02*
X174891595Y-108620500D01*
X174891595Y-108620500D02*
X174820166Y-108834785D01*
X174820166Y-108834785D02*
X173963023Y-109691928D01*
X173963023Y-109691928D02*
X174891595Y-109691928D01*
X176177309Y-108191928D02*
X175891594Y-108191928D01*
X175891594Y-108191928D02*
X175748737Y-108263357D01*
X175748737Y-108263357D02*
X175677309Y-108334785D01*
X175677309Y-108334785D02*
X175534451Y-108549071D01*
X175534451Y-108549071D02*
X175463023Y-108834785D01*
X175463023Y-108834785D02*
X175463023Y-109406214D01*
X175463023Y-109406214D02*
X175534451Y-109549071D01*
X175534451Y-109549071D02*
X175605880Y-109620500D01*
X175605880Y-109620500D02*
X175748737Y-109691928D01*
X175748737Y-109691928D02*
X176034451Y-109691928D01*
X176034451Y-109691928D02*
X176177309Y-109620500D01*
X176177309Y-109620500D02*
X176248737Y-109549071D01*
X176248737Y-109549071D02*
X176320166Y-109406214D01*
X176320166Y-109406214D02*
X176320166Y-109049071D01*
X176320166Y-109049071D02*
X176248737Y-108906214D01*
X176248737Y-108906214D02*
X176177309Y-108834785D01*
X176177309Y-108834785D02*
X176034451Y-108763357D01*
X176034451Y-108763357D02*
X175748737Y-108763357D01*
X175748737Y-108763357D02*
X175605880Y-108834785D01*
X175605880Y-108834785D02*
X175534451Y-108906214D01*
X175534451Y-108906214D02*
X175463023Y-109049071D01*
X176820165Y-108191928D02*
X177748737Y-108191928D01*
X177748737Y-108191928D02*
X177248737Y-108763357D01*
X177248737Y-108763357D02*
X177463022Y-108763357D01*
X177463022Y-108763357D02*
X177605880Y-108834785D01*
X177605880Y-108834785D02*
X177677308Y-108906214D01*
X177677308Y-108906214D02*
X177748737Y-109049071D01*
X177748737Y-109049071D02*
X177748737Y-109406214D01*
X177748737Y-109406214D02*
X177677308Y-109549071D01*
X177677308Y-109549071D02*
X177605880Y-109620500D01*
X177605880Y-109620500D02*
X177463022Y-109691928D01*
X177463022Y-109691928D02*
X177034451Y-109691928D01*
X177034451Y-109691928D02*
X176891594Y-109620500D01*
X176891594Y-109620500D02*
X176820165Y-109549071D01*
X178248736Y-108191928D02*
X179248736Y-108191928D01*
X179248736Y-108191928D02*
X178605879Y-109691928D01*
D10*
D11*
X110007200Y-129505800D02*
X110007200Y-132505800D01*
D10*
D11*
X174007200Y-129505800D02*
X174007200Y-136005800D01*
D14*
X13000000Y-13000000D02*
X118000000Y-13000000D01*
X118000000Y-75000000D01*
X13000000Y-75000000D01*
X13000000Y-13000000D01*
M02*
